<svg width="60" height="60" viewBox="0 0 60 60" fill="none" xmlns="http://www.w3.org/2000/svg">
<path d="M30 5.00763C16.215 5.00763 5 16.2201 5 30.0078V50.0078C5 52.7678 7.2375 55.0078 10 55.0078H15C17.76 55.0078 20 52.7678 20 50.0078V42.5078C20 39.7478 17.76 37.5078 15 37.5078H10V30.0078C10 18.9776 18.9725 10.0076 30 10.0076C41.0275 10.0076 50 18.9776 50 30.0078V37.5078H45C42.24 37.5078 40 39.7478 40 42.5078V50.0078C40 52.7678 42.24 55.0078 45 55.0078H50C52.76 55.0078 55 52.7678 55 50.0078V30.0078C55 16.2201 43.785 5.00763 30 5.00763Z" fill="white" fill-opacity="0.6"/>
</svg>
