<svg width="60" height="60" viewBox="0 0 60 60" fill="none" xmlns="http://www.w3.org/2000/svg">
<path fill-rule="evenodd" clip-rule="evenodd" d="M38.7499 2.5H18.7499C15.2999 2.5 12.4999 5.3 12.4999 8.75V51.25C12.4999 54.7 15.2999 57.5 18.7499 57.5H38.7499C42.1999 57.5 44.9999 54.7 44.9999 51.25V8.75C44.9999 5.3 42.1999 2.5 38.7499 2.5ZM28.7499 55C26.6749 55 24.9999 53.325 24.9999 51.25C24.9999 49.175 26.6749 47.5 28.7499 47.5C30.8249 47.5 32.4999 49.175 32.4999 51.25C32.4999 53.325 30.8249 55 28.7499 55ZM39.9999 45H17.4999V10H39.9999V45Z" fill="#B5BBC0"/>
</svg>
