<svg width="60" height="60" viewBox="0 0 60 60" fill="none" xmlns="http://www.w3.org/2000/svg">
<path d="M15.8775 15.8775C19.56 12.1775 24.57 10 30 10C41.0275 10 50 18.9725 50 30H55C55 16.2125 43.785 5 30 5C23.2125 5 16.9475 7.7225 12.345 12.345L7.5 7.5V22.5H22.5L15.8775 15.8775Z" fill="white" fill-opacity="0.6"/>
<path d="M44.1225 44.1225C40.44 47.8225 35.4325 50 30 50C18.9725 50 10 41.0275 10 30H5C5 43.7875 16.215 55 30 55C36.79 55 43.0525 52.2775 47.655 47.655L52.5 52.5V37.5H37.5L44.1225 44.1225Z" fill="white" fill-opacity="0.6"/>
</svg>
