<svg width="60" height="60" viewBox="0 0 60 60" fill="none" xmlns="http://www.w3.org/2000/svg">
<path fill-rule="evenodd" clip-rule="evenodd" d="M49.345 25H55V35H49.3475C48.745 37.3275 47.75 39.495 46.4125 41.41L50 45L45 50L41.4125 46.41C39.4925 47.7475 37.33 48.745 35 49.345V55H25V49.345C22.6725 48.745 20.5075 47.7475 18.59 46.41L15 50L10 45L13.59 41.41C12.2525 39.4975 11.255 37.33 10.655 35H5V25H10.655C11.255 22.67 12.25 20.505 13.59 18.59L10 15L15 10L18.59 13.59C20.505 12.25 22.67 11.255 25 10.655V5H35V10.6525C37.33 11.255 39.4925 12.25 41.4125 13.5875L45 9.9975L50 14.9975L46.41 18.59C47.7475 20.505 48.745 22.6725 49.345 25ZM30 40C35.5228 40 40 35.5228 40 30C40 24.4771 35.5228 20 30 20C24.4771 20 20 24.4771 20 30C20 35.5228 24.4771 40 30 40Z" fill="white" fill-opacity="0.6"/>
</svg>
