<svg width="60" height="60" viewBox="0 0 60 60" fill="none" xmlns="http://www.w3.org/2000/svg">
<g clip-path="url(#clip0_1665_132)">
<path d="M30.5094 0.574652C30.374 0.440013 30.1907 0.364441 29.9998 0.364441C29.8088 0.364441 29.6256 0.440013 29.4901 0.574652L0.574469 29.4903C0.43983 29.6258 0.364258 29.809 0.364258 30C0.364258 30.1909 0.43983 30.3741 0.574469 30.5096L29.4901 59.4253C29.6256 59.5599 29.8088 59.6355 29.9998 59.6355C30.1907 59.6355 30.374 59.5599 30.5094 59.4253L59.4251 30.5096C59.5597 30.3741 59.6353 30.1909 59.6353 30C59.6353 29.809 59.5597 29.6258 59.4251 29.4903L30.5094 0.574652ZM29.9998 57.8927L2.107 30L29.9998 2.10718L57.8925 30L29.9998 57.8927Z" fill="#45DDC0"/>
<path d="M29.4901 5.63489L5.63471 29.4903C5.50007 29.6258 5.4245 29.809 5.4245 30C5.4245 30.1909 5.50007 30.3742 5.63471 30.5096L29.4901 54.365C29.6256 54.4997 29.8088 54.5752 29.9998 54.5752C30.1907 54.5752 30.374 54.4997 30.5094 54.365L54.3648 30.5096C54.4995 30.3742 54.575 30.1909 54.575 30C54.575 29.809 54.4995 29.6258 54.3648 29.4903L30.5094 5.63489C30.374 5.50025 30.1907 5.42468 29.9998 5.42468C29.8088 5.42468 29.6256 5.50025 29.4901 5.63489ZM38.0094 39.4626C38.0474 39.4623 38.0847 39.4724 38.1173 39.4919C38.1498 39.5114 38.1764 39.5396 38.1939 39.5732C38.2115 39.6069 38.2194 39.6448 38.2169 39.6826C38.2143 39.7205 38.2013 39.757 38.1793 39.7879C38.1672 39.8089 38.1497 39.8264 38.1287 39.8385L30.1227 45.5783C30.0869 45.6041 30.0439 45.6181 29.9998 45.6181C29.9556 45.6181 29.9126 45.6041 29.8769 45.5783L21.8709 39.8385C21.8426 39.8202 21.8196 39.7949 21.8038 39.7652C21.7879 39.7355 21.7799 39.7023 21.7805 39.6686C21.7823 39.6376 21.7903 39.6073 21.804 39.5793C21.8176 39.5514 21.8367 39.5265 21.86 39.506C21.8965 39.4789 21.9411 39.4649 21.9865 39.4662H23.7612C23.7971 39.4667 23.8325 39.4578 23.8639 39.4405C23.8953 39.4231 23.9216 39.3978 23.9402 39.3671C23.9589 39.3365 23.9691 39.3015 23.9701 39.2656C23.971 39.2297 23.9626 39.1942 23.9456 39.1626L23.3564 38.006L20.9889 33.3433C20.9739 33.3155 20.9652 33.2846 20.9636 33.253V33.2313C20.9678 33.202 20.9776 33.1737 20.9925 33.1481C21.0081 33.1265 21.0278 33.1081 21.0504 33.0939C21.077 33.0795 21.1068 33.0721 21.1371 33.0722H21.1697C21.1926 33.0788 21.2145 33.0885 21.2347 33.1012L28.3805 37.8C28.4408 37.8422 28.4965 37.8907 28.5468 37.9445C28.5959 38.0001 28.6372 38.0621 28.6697 38.1289L29.2154 39.2132L29.7576 40.2975C29.7761 40.329 29.8025 40.3551 29.8342 40.3733C29.8659 40.3914 29.9018 40.4009 29.9383 40.4009C29.9748 40.4009 30.0107 40.3914 30.0424 40.3733C30.0741 40.3551 30.1005 40.329 30.119 40.2975L30.6612 39.2132L31.207 38.1289C31.2254 38.0962 31.2459 38.0648 31.2684 38.0349C31.329 37.9431 31.4063 37.8634 31.4962 37.8L38.6419 33.1084C38.6622 33.0958 38.6841 33.086 38.707 33.0795H38.7395C38.7698 33.079 38.7998 33.0865 38.8263 33.1012C38.8489 33.1153 38.8685 33.1337 38.8841 33.1554C38.8991 33.1809 38.9089 33.2092 38.913 33.2385V33.253C38.9142 33.288 38.9068 33.3227 38.8913 33.3542L35.9311 39.1698C35.9152 39.2016 35.9076 39.2368 35.909 39.2723C35.9104 39.3078 35.9209 39.3423 35.9393 39.3726C35.9577 39.403 35.9835 39.4281 36.0143 39.4458C36.0452 39.4634 36.0799 39.4729 36.1154 39.4734H37.8901L38.0094 39.4626ZM30.7227 18.9036L50.5516 29.2771H30.7227V18.9036ZM29.2769 29.2771H9.44796L29.2769 18.9036V29.2771ZM29.2769 17.2734L9.60338 27.5638L29.2769 7.89032V17.2734ZM29.2769 30.7228V36.5927L29.2263 36.5566L22.0805 31.8578C21.812 31.6784 21.4962 31.5828 21.1733 31.5831C20.8895 31.5843 20.6107 31.658 20.3634 31.7972C20.1161 31.9363 19.9084 32.1363 19.76 32.3783C19.6121 32.6191 19.5288 32.8939 19.518 33.1762C19.5073 33.4586 19.5695 33.739 19.6986 33.9903L21.1443 36.8349L9.44796 30.7228H29.2769ZM40.301 33.9975C40.4301 33.7462 40.4923 33.4658 40.4815 33.1835C40.4707 32.9011 40.3874 32.6263 40.2395 32.3855C40.0912 32.1436 39.8835 31.9435 39.6362 31.8044C39.3888 31.6652 39.1101 31.5915 38.8263 31.5903C38.5033 31.59 38.1876 31.6856 37.919 31.865L30.7733 36.5638L30.7227 36.6V30.7228H50.5516L38.8516 36.8421L40.301 33.9975ZM30.7227 17.2734V7.87586L50.3962 27.5494L30.7227 17.2734ZM29.9998 52.8325L9.60338 32.4361L20.9636 38.3783C20.7625 38.537 20.6012 38.7405 20.4925 38.9725C20.3838 39.2045 20.3307 39.4586 20.3373 39.7147C20.344 39.9709 20.4103 40.2219 20.5309 40.4479C20.6516 40.6739 20.8232 40.8687 21.0323 41.0168L29.0383 46.753C29.3194 46.9553 29.657 47.0642 30.0034 47.0642C30.3497 47.0642 30.6873 46.9553 30.9684 46.753L38.9745 41.0168C39.1835 40.8687 39.3552 40.6739 39.4758 40.4479C39.5965 40.2219 39.6628 39.9709 39.6694 39.7147C39.6761 39.4586 39.623 39.2045 39.5142 38.9725C39.4055 38.7405 39.2442 38.537 39.0431 38.3783L50.3998 32.4361L29.9998 52.8325Z" fill="#45DDC0"/>
</g>
<defs>
<clipPath id="clip0_1665_132">
<rect width="60" height="60" fill="white"/>
</clipPath>
</defs>
</svg>
