<svg width="60" height="60" viewBox="0 0 60 60" fill="none" xmlns="http://www.w3.org/2000/svg">
<path d="M15.4051 37.5163C15.2715 37.5055 15.1364 37.5 15 37.5H9.99998V30C9.99998 18.97 18.9725 10 30 10C33.7022 10 37.1727 11.011 40.1497 12.7715L43.7755 9.14587C39.823 6.5266 35.0865 5 30 5C16.215 5 4.99998 16.2125 4.99998 30V47.9213L15.4051 37.5163Z" fill="white" fill-opacity="0.6"/>
<path d="M49.3125 24.7921C49.7607 26.4532 50 28.199 50 30V37.5H45C42.24 37.5 40 39.74 40 42.5V50C40 52.76 42.24 55 45 55H50C52.7625 55 55 52.76 55 50V30C55 26.7687 54.384 23.6787 53.2632 20.8414L49.3125 24.7921Z" fill="white" fill-opacity="0.6"/>
<path d="M8.0025 59.0607L4.46698 55.5252L53.9645 6.02782L57.5 9.56337L8.0025 59.0607Z" fill="#E93848"/>
</svg>
