<svg width="60" height="60" viewBox="0 0 60 60" fill="none" xmlns="http://www.w3.org/2000/svg">
<path d="M49.8793 8.15421H10.095C10.0565 8.15064 10.0178 8.15064 9.97933 8.15421C9.95476 8.15978 9.93061 8.16703 9.90704 8.1759L9.84559 8.19397L9.77692 8.23012L9.7227 8.25903L9.66125 8.30964L9.61427 8.3494C9.57952 8.38006 9.54912 8.41533 9.52391 8.45422C9.49813 8.49475 9.47519 8.53702 9.45523 8.58072V8.64217C9.44635 8.66574 9.43911 8.68989 9.43354 8.71446C9.4282 8.7625 9.4282 8.81099 9.43354 8.85903V35.8301C9.43326 35.9411 9.45854 36.0507 9.50743 36.1504C9.55632 36.25 9.62751 36.3371 9.71547 36.4048L29.595 51.6976C29.7214 51.7949 29.8764 51.8477 30.036 51.8477C30.1955 51.8477 30.3505 51.7949 30.4769 51.6976L50.3564 36.4048C50.4444 36.3371 50.5156 36.25 50.5645 36.1504C50.6134 36.0507 50.6387 35.9411 50.6384 35.8301V8.87711C50.6437 8.82906 50.6437 8.78057 50.6384 8.73253C50.6328 8.70796 50.6256 8.68381 50.6167 8.66024C50.6167 8.64217 50.6167 8.62048 50.5986 8.59879C50.5787 8.5551 50.5557 8.51283 50.5299 8.47229C50.5027 8.43497 50.4725 8.39991 50.4396 8.36747C50.4244 8.35113 50.4074 8.33658 50.389 8.32409L50.3311 8.27711L50.2733 8.24458L50.2082 8.21205L50.1432 8.19036H49.8793V8.15421ZM30.4046 41.2735C30.2851 41.1927 30.1441 41.1495 29.9998 41.1495C29.8555 41.1495 29.7145 41.1927 29.595 41.2735L23.6347 45.3145L20.3456 42.7843L29.9998 36.2386L39.654 42.7843L36.3649 45.3145L30.4046 41.2735ZM35.1576 46.2434L29.9998 50.212L24.842 46.2361L29.9998 42.7446L35.1576 46.2434ZM30.4046 34.7675C30.2851 34.6867 30.1441 34.6435 29.9998 34.6435C29.8555 34.6435 29.7145 34.6867 29.595 34.7675L19.1564 41.8554L15.8673 39.3253L28.5974 30.6867L29.0347 31.0012C29.3158 31.2036 29.6534 31.3124 29.9998 31.3124C30.3462 31.3124 30.6838 31.2036 30.9649 31.0012L31.4022 30.6867L44.1504 39.3253L40.8613 41.8554L30.4046 34.7675ZM29.595 16.4458C29.7145 16.5266 29.8555 16.5698 29.9998 16.5698C30.1441 16.5698 30.2851 16.5266 30.4046 16.4458L40.5034 9.6H47.5263L37.9191 16.106L30.7733 20.8048C30.5561 20.945 30.3642 21.1209 30.2058 21.3253L29.9998 21.4663L29.7938 21.3253C29.6367 21.1158 29.4447 20.9348 29.2263 20.7904L22.0805 16.0916L12.4733 9.58554H19.4962L29.595 16.4458ZM22.0697 9.6H37.9299L29.9998 14.9747L22.0697 9.6ZM38.7938 17.2916H38.8263C38.8566 17.2911 38.8865 17.2986 38.9131 17.3133C38.9357 17.3274 38.9553 17.3458 38.9709 17.3675C38.9858 17.393 38.9957 17.4213 38.9998 17.4506V17.4723C39.001 17.5073 38.9936 17.542 38.9781 17.5735L36.0504 23.4072C36.0334 23.4388 36.025 23.4743 36.0259 23.5102C36.0268 23.5461 36.0371 23.5811 36.0557 23.6118C36.0744 23.6424 36.1007 23.6677 36.1321 23.6851C36.1635 23.7025 36.1989 23.7113 36.2348 23.7108H38.0094C38.0644 23.7108 38.1172 23.7324 38.1564 23.771C38.1956 23.8095 38.2181 23.8619 38.2191 23.9169C38.218 23.9486 38.2093 23.9796 38.1938 24.0072C38.1951 24.018 38.1951 24.029 38.1938 24.0398C38.1806 24.0589 38.1633 24.075 38.1432 24.0867L30.1227 29.8265C30.0869 29.8524 30.0439 29.8663 29.9998 29.8663C29.9557 29.8663 29.9127 29.8524 29.8769 29.8265L21.8709 24.0867C21.8427 24.0684 21.8196 24.0432 21.8038 24.0135C21.788 23.9838 21.78 23.9505 21.7805 23.9169C21.7815 23.8619 21.804 23.8095 21.8432 23.771C21.8824 23.7324 21.9352 23.7108 21.9902 23.7108H23.7649C23.8008 23.7113 23.8361 23.7025 23.8675 23.6851C23.8989 23.6677 23.9253 23.6424 23.9439 23.6118C23.9625 23.5811 23.9728 23.5461 23.9737 23.5102C23.9747 23.4743 23.9662 23.4388 23.9492 23.4072L20.989 17.5916C20.9735 17.5601 20.9661 17.5254 20.9673 17.4904V17.4687C20.9714 17.4393 20.9812 17.4111 20.9962 17.3855C21.0118 17.3639 21.0314 17.3455 21.054 17.3313C21.0806 17.3166 21.1105 17.3092 21.1408 17.3096H21.1733C21.1953 17.3155 21.2162 17.3253 21.2347 17.3386L28.3805 22.0373C28.5041 22.1197 28.6039 22.2331 28.6697 22.3663L29.3239 23.6747L29.7576 24.5494C29.7761 24.5809 29.8026 24.607 29.8343 24.6251C29.866 24.6432 29.9018 24.6528 29.9384 24.6528C29.9749 24.6528 30.0108 24.6432 30.0425 24.6251C30.0742 24.607 30.1006 24.5809 30.1191 24.5494L30.5528 23.6747L31.207 22.3663C31.2395 22.2995 31.2808 22.2375 31.3299 22.1819C31.3802 22.1281 31.4359 22.0796 31.4962 22.0373L38.642 17.3386C38.6606 17.3253 38.6814 17.3155 38.7034 17.3096L38.7938 17.2916ZM19.9335 16.4024C19.8697 16.4748 19.8117 16.5522 19.76 16.6337C19.6122 16.8745 19.5288 17.1493 19.5181 17.4317C19.5073 17.7141 19.5695 17.9944 19.6986 18.2458L21.7552 22.2795C21.4283 22.3272 21.1232 22.4715 20.879 22.694C20.6349 22.9165 20.4628 23.207 20.3851 23.5281C20.3074 23.8491 20.3275 24.1861 20.4428 24.4956C20.5581 24.8052 20.7635 25.0732 21.0323 25.2651L22.6805 26.447L10.8432 34.4675V10.2506L19.9335 16.4024ZM37.3227 26.447L38.9709 25.2651C39.2398 25.0732 39.4451 24.8052 39.5604 24.4956C39.6758 24.1861 39.6959 23.8491 39.6181 23.5281C39.5404 23.207 39.3684 22.9165 39.1242 22.694C38.88 22.4715 38.5749 22.3272 38.248 22.2795L40.3046 18.2458C40.4337 17.9944 40.4959 17.7141 40.4851 17.4317C40.4744 17.1493 40.3911 16.8745 40.2432 16.6337C40.1915 16.5522 40.1335 16.4748 40.0697 16.4024L49.1564 10.2398V34.4566L37.3227 26.447ZM23.9311 27.3434L27.3432 29.7867L14.642 38.4L11.3528 35.8699L23.9311 27.3434ZM32.6564 29.7867L36.0685 27.3434L48.6468 35.8699L45.3576 38.4L32.6564 29.7867Z" fill="#9C84EF"/>
<path d="M53.4938 4.06625H6.50585C6.31413 4.06625 6.13026 4.14242 5.99469 4.27798C5.85912 4.41355 5.78296 4.59742 5.78296 4.78915V37.1385C5.78322 37.2489 5.80877 37.3578 5.85764 37.4568C5.90651 37.5558 5.97741 37.6423 6.06489 37.7096L29.5589 55.7819C29.6853 55.8792 29.8403 55.932 29.9998 55.932C30.1593 55.932 30.3144 55.8792 30.4408 55.7819L53.9348 37.7096C54.0223 37.6423 54.0931 37.5558 54.142 37.4568C54.1909 37.3578 54.2164 37.2489 54.2167 37.1385V4.78915C54.2167 4.59742 54.1405 4.41355 54.005 4.27798C53.8694 4.14242 53.6855 4.06625 53.4938 4.06625ZM52.7709 36.7843L29.9998 54.3L7.22874 36.7843V5.51204H52.7709V36.7843Z" fill="#9C84EF"/>
</svg>
