<svg width="60" height="60" viewBox="0 0 60 60" fill="none" xmlns="http://www.w3.org/2000/svg">
<path d="M16.75 27.5H12.5C12.5 30.475 13.35 33.25 14.75 35.7L17.825 32.625C17.15 31.075 16.75 29.35 16.75 27.5Z" fill="white" fill-opacity="0.6"/>
<path d="M22.525 27.7125C22.5375 27.7812 22.55 27.85 22.55 27.925L37.5 12.95V12.5C37.5 8.35 34.15 5 30 5C25.85 5 22.5 8.35 22.5 12.5V27.5C22.5 27.575 22.5125 27.6437 22.525 27.7125Z" fill="white" fill-opacity="0.6"/>
<path d="M29.3092 40.2317L27.408 42.1327L25.6332 43.922C26.2445 44.0825 26.8675 44.2097 27.5 44.3V55H32.5V44.3C40.7 43.075 47.5 36.025 47.5 27.5H43.25C43.25 35 36.9 40.25 30 40.25C29.769 40.25 29.5387 40.2437 29.3092 40.2317Z" fill="white" fill-opacity="0.6"/>
<path d="M52.5 10.675L49.325 7.5L7.5 49.325L10.675 52.5L21.15 42.05L24.225 38.95L52.5 10.675Z" fill="#E93848"/>
</svg>
