<svg width="60" height="60" viewBox="0 0 60 60" fill="none" xmlns="http://www.w3.org/2000/svg">
<path fill-rule="evenodd" clip-rule="evenodd" d="M43.25 27.5C43.25 35 36.9 40.25 30 40.25C23.1 40.25 16.75 35 16.75 27.5H12.5C12.5 36.025 19.3 43.075 27.5 44.3V55H32.5V44.3C40.7 43.1 47.5 36.05 47.5 27.5H43.25Z" fill="white" fill-opacity="0.6"/>
<path d="M37.475 27.5C37.475 31.65 34.15 35 30 35C25.85 35 22.5 31.65 22.5 27.5V12.5C22.5 8.35 25.85 5 30 5C34.15 5 37.5 8.35 37.5 12.5L37.475 27.5Z" fill="white" fill-opacity="0.6"/>
</svg>
