<svg width="60" height="60" viewBox="0 0 60 60" fill="none" xmlns="http://www.w3.org/2000/svg">
<path d="M30.0002 3.97589C24.8531 3.97589 19.8216 5.50218 15.542 8.36174C11.2623 11.2213 7.92675 15.2857 5.95705 20.041C3.98735 24.7963 3.47199 30.0289 4.47613 35.077C5.48028 40.1252 7.95883 44.7623 11.5984 48.4018C15.2379 52.0413 19.875 54.5199 24.9231 55.524C29.9713 56.5282 35.2039 56.0128 39.9592 54.0431C44.7145 52.0734 48.7789 48.7378 51.6384 44.4582C54.498 40.1786 56.0243 35.1471 56.0243 30C56.0166 23.1003 53.2724 16.4854 48.3935 11.6066C43.5147 6.72782 36.8999 3.98354 30.0002 3.97589ZM30.0002 54.5783C25.139 54.5783 20.3871 53.1368 16.3452 50.4361C12.3033 47.7354 9.15306 43.8968 7.29278 39.4057C5.43251 34.9146 4.94577 29.9727 5.89413 25.205C6.84249 20.4373 9.18335 16.0578 12.6207 12.6205C16.058 9.18316 20.4375 6.8423 25.2052 5.89394C29.9729 4.94558 34.9148 5.43231 39.4059 7.29259C43.897 9.15286 47.7356 12.3031 50.4363 16.345C53.137 20.3869 54.5785 25.1389 54.5785 30C54.5718 36.5165 51.9802 42.7642 47.3723 47.3721C42.7644 51.98 36.5167 54.5716 30.0002 54.5783Z" fill="#F07D5F"/>
<path d="M52.4098 29.7723C52.3553 23.9142 50.002 18.312 45.8568 14.1723L45.8351 14.147L45.799 14.1181C41.6059 9.93898 35.9274 7.59236 30.0074 7.59236C24.0874 7.59236 18.4088 9.93898 14.2158 14.1181L14.1797 14.1506L14.158 14.1795C10.0079 18.3142 7.64922 23.9144 7.59052 29.7723C7.58854 29.7915 7.58854 29.8109 7.59052 29.8301C7.59052 29.8301 7.59052 29.8518 7.59052 29.8626C7.59052 29.8735 7.59052 29.953 7.59052 30C7.59052 35.9434 9.95153 41.6434 14.1542 45.846C18.3568 50.0486 24.0568 52.4096 30.0002 52.4096C35.9436 52.4096 41.6435 50.0486 45.8462 45.846C50.0488 41.6434 52.4098 35.9434 52.4098 30C52.4098 29.953 52.4098 29.9096 52.4098 29.8626C52.4098 29.8157 52.4098 29.841 52.4098 29.8301C52.4118 29.8109 52.4118 29.7915 52.4098 29.7723ZM25.5797 14.3096L28.4351 16.1855C28.5173 16.2431 28.5894 16.3139 28.6483 16.3952C28.6765 16.4318 28.7019 16.4704 28.7243 16.5108L29.27 17.5952L29.6604 18.3831L29.8122 18.6867C29.8307 18.7182 29.8571 18.7443 29.8888 18.7625C29.9205 18.7806 29.9564 18.7901 29.9929 18.7901C30.0294 18.7901 30.0653 18.7806 30.097 18.7625C30.1287 18.7443 30.1551 18.7182 30.1737 18.6867L31.258 16.5181C31.323 16.3854 31.423 16.2729 31.5471 16.1928L38.6929 11.494C38.7125 11.4809 38.7347 11.4723 38.758 11.4687H38.7905C38.8206 11.4703 38.85 11.4776 38.8773 11.4903C38.8999 11.5045 38.9195 11.5229 38.9351 11.5446C38.9501 11.5701 38.9599 11.5984 38.964 11.6277V11.6494C38.9652 11.6844 38.9578 11.7191 38.9423 11.7506L37.8363 13.9193L37.1134 15.365L35.9965 17.5626C35.9806 17.5944 35.973 17.6296 35.9745 17.6651C35.9759 17.7006 35.9863 17.7351 36.0047 17.7654C36.0232 17.7958 36.049 17.8209 36.0798 17.8386C36.1106 17.8562 36.1454 17.8657 36.1809 17.8663H37.9556C37.9996 17.867 38.0423 17.8816 38.0775 17.9079C38.1128 17.9342 38.1389 17.971 38.1521 18.013C38.1652 18.055 38.1649 18.1001 38.151 18.1419C38.1372 18.1836 38.1105 18.22 38.0749 18.2458L30.123 23.9964C30.0873 24.0222 30.0443 24.0362 30.0002 24.0362C29.956 24.0362 29.913 24.0222 29.8773 23.9964L21.8712 18.2602C21.8356 18.2344 21.8089 18.1981 21.7951 18.1563C21.7812 18.1145 21.7808 18.0695 21.794 18.0275C21.8072 17.9855 21.8333 17.9487 21.8686 17.9224C21.9039 17.896 21.9465 17.8814 21.9905 17.8807H23.7652C23.8007 17.8802 23.8355 17.8707 23.8663 17.853C23.8971 17.8354 23.9229 17.8102 23.9414 17.7799C23.9598 17.7495 23.9702 17.715 23.9716 17.6796C23.9731 17.6441 23.9655 17.6088 23.9496 17.5771L20.9893 11.7614C20.9739 11.73 20.9664 11.6952 20.9676 11.6602V11.6385C20.9718 11.6092 20.9816 11.581 20.9965 11.5554C21.0121 11.5338 21.0318 11.5154 21.0544 11.5012C21.0815 11.4881 21.111 11.4807 21.1411 11.4795H21.1737C21.1969 11.4831 21.2191 11.4918 21.2387 11.5048L24.9761 13.9626L25.5291 14.3241L25.5797 14.3096ZM39.5857 17.5843C39.4908 17.2886 39.3148 17.0254 39.0778 16.8248C38.8407 16.6242 38.5521 16.4941 38.2447 16.4494L38.7905 15.365H44.5953V24.5783L40.2218 28.9518L34.1568 22.8831L38.9712 19.4349C39.2572 19.232 39.471 18.9431 39.5815 18.6102C39.692 18.2774 39.6935 17.918 39.5857 17.5843ZM27.0363 23.7289L29.0351 25.1747C29.3162 25.377 29.6538 25.4859 30.0002 25.4859C30.3465 25.4859 30.6841 25.377 30.9652 25.1747L32.964 23.7289L38.3315 29.0964H21.6869L27.0363 23.7289ZM21.7556 16.4494C21.4287 16.497 21.1235 16.6414 20.8794 16.8639C20.6352 17.0864 20.4632 17.3769 20.3854 17.6979C20.3077 18.019 20.3278 18.356 20.4431 18.6655C20.5585 18.9751 20.7638 19.243 21.0327 19.4349L25.8435 22.8831L19.7785 28.9518L15.405 24.5783V15.3795H21.2098L21.7556 16.4494ZM15.405 35.3675L19.7785 30.9976L28.9773 40.1964L24.6074 44.5699H15.405V35.3675ZM21.3761 30.553H38.6243L30.0002 39.1771L21.3761 30.553ZM40.2218 30.9976L44.5953 35.3675V44.5699H35.3929L31.023 40.1964L40.2218 30.9976ZM39.5279 13.9337L40.3014 12.4156C40.3911 12.238 40.4486 12.0459 40.4712 11.8482C41.5215 12.4574 42.5179 13.1551 43.4496 13.9337H39.5279ZM19.699 12.4156L20.4724 13.9337H16.5508C17.479 13.1557 18.4717 12.458 19.5182 11.8482C19.5443 12.0466 19.6055 12.2387 19.699 12.4156ZM14.1724 25.3916L17.8845 29.1072H9.05799C9.25237 24.4849 10.9763 20.0581 13.9592 16.5217V24.8819C13.96 25.0733 14.0367 25.2566 14.1724 25.3916ZM18.1773 30.553L14.1724 34.5578C14.0384 34.691 13.9619 34.8713 13.9592 35.0602V43.4711C10.8983 39.8494 9.16203 35.2933 9.0363 30.553H18.1773ZM45.8279 34.5578L41.823 30.553H50.964C50.844 35.294 49.1128 39.8527 46.0556 43.4783V35.0602C46.0491 34.8692 45.9672 34.6886 45.8279 34.5578ZM42.1158 29.1072L45.8279 25.3916C45.9636 25.2566 46.0403 25.0733 46.0411 24.8819V16.5217C49.024 20.0581 50.7479 24.4849 50.9423 29.1072H42.1158ZM37.623 10.4819L30.7556 14.9783C30.4351 15.1935 30.1751 15.4872 30.0002 15.8313C29.8207 15.4837 29.5542 15.1886 29.2267 14.9747L22.3773 10.4819C27.2773 8.55892 32.723 8.55892 37.623 10.4819ZM16.4929 46.0157H24.9074C25.0988 46.0148 25.2821 45.9382 25.417 45.8024L30.0002 41.2048L34.5833 45.7879C34.7182 45.9237 34.9015 46.0004 35.0929 46.0012H43.5074C39.7319 49.1962 34.9461 50.9494 30.0002 50.9494C25.0542 50.9494 20.2684 49.1962 16.4929 46.0012V46.0157Z" fill="#F07D5F"/>
</svg>
