<svg width="60" height="60" viewBox="0 0 60 60" fill="none" xmlns="http://www.w3.org/2000/svg">
<path d="M52.7981 3.27332L57.2156 7.69332L49.4256 15.4833L57.2156 23.2733L52.7981 27.6932L45.0056 19.9033L37.2156 27.6932L32.7981 23.2733L40.5881 15.4833L32.7981 7.69332L37.2156 3.27332L45.0056 11.0633L52.7981 3.27332ZM45.0058 55.4832H32.5059C17.3184 55.4832 5.00586 43.1707 5.00586 27.9832V15.4832C5.00586 14.1007 6.12586 12.9832 7.50586 12.9832H17.5059C18.8884 12.9832 20.0059 14.1007 20.0059 15.4832V25.4832C20.0059 26.8657 18.8884 27.9832 17.5059 27.9832H15.0059C15.1634 37.8282 22.5059 45.4832 32.5059 45.4832V42.9832C32.5059 41.6007 33.6234 40.4832 35.0059 40.4832H45.0058C46.3883 40.4832 47.5058 41.6007 47.5058 42.9832V52.9832C47.5058 54.3657 46.3883 55.4832 45.0058 55.4832Z" fill="white" fill-opacity="0.6"/>
</svg>
