<svg width="60" height="60" viewBox="0 0 60 60" fill="none" xmlns="http://www.w3.org/2000/svg">
<path d="M27.2237 10.4493C27.2237 9.07325 28.343 7.9577 29.7237 7.9577H30.2793C31.66 7.9577 32.7793 9.07325 32.7793 10.4493V50.3151C32.7793 51.6912 31.66 52.8067 30.2793 52.8067H29.7237C28.343 52.8067 27.2237 51.6912 27.2237 50.3151V10.4493Z" fill="white" fill-opacity="0.6"/>
<path d="M16.1132 16.0555C16.1132 14.6794 17.2325 13.5638 18.6132 13.5638H19.1687C20.5494 13.5638 21.6687 14.6794 21.6687 16.0555V44.709C21.6687 46.0851 20.5494 47.2006 19.1687 47.2006H18.6132C17.2325 47.2006 16.1132 46.0851 16.1132 44.709V16.0555Z" fill="white" fill-opacity="0.6"/>
<path d="M8.06068 38.7914C9.4414 38.7914 10.5607 37.6759 10.5607 36.2998V24.4647C10.5607 23.0886 9.4414 21.9731 8.06068 21.9731H7.50513C6.12443 21.9731 5.00513 23.0886 5.00513 24.4647V36.2998C5.00513 37.6759 6.12443 38.7914 7.50513 38.7914H8.06068Z" fill="white" fill-opacity="0.6"/>
<path d="M54.9965 33.4968C54.9965 34.8729 53.877 35.9884 52.4965 35.9884H51.9408C50.56 35.9884 49.4408 34.8729 49.4408 33.4968V27.2677C49.4408 25.8916 50.56 24.7761 51.9408 24.7761H52.4965C53.877 24.7761 54.9965 25.8916 54.9965 27.2677V33.4968Z" fill="white" fill-opacity="0.6"/>
<path d="M40.8325 19.17C39.4517 19.17 38.3324 20.2855 38.3324 21.6616V39.1029C38.3324 40.479 39.4517 41.5945 40.8325 41.5945H41.388C42.7687 41.5945 43.888 40.479 43.888 39.1029V21.6616C43.888 20.2855 42.7687 19.17 41.388 19.17H40.8325Z" fill="white" fill-opacity="0.6"/>
</svg>
