<svg width="60" height="60" viewBox="0 0 60 60" fill="none" xmlns="http://www.w3.org/2000/svg">
<path d="M11.0044 6.62927C8.24689 6.62927 6.00439 8.83465 6.00439 11.5465V38.5912C6.00439 41.3055 8.24689 43.5084 11.0044 43.5084H28.5044V48.4256H18.5044V53.3429H43.5044V48.4256H33.5044V43.5084H51.0044C53.7619 43.5084 56.0044 41.3055 56.0044 38.5912V11.5465C56.0044 8.83465 53.7619 6.62927 51.0044 6.62927H11.0044ZM37.3751 15.2344L41.0044 18.8037L34.6209 25.0562L41.0044 31.3341L37.3751 34.9033L31.0171 28.6255L24.6337 34.9033L21.0044 31.3341L27.3879 25.0562L21.0044 18.8037L24.6337 15.2344L31.0171 21.5122L37.3751 15.2344Z" fill="white" fill-opacity="0.6"/>
</svg>
