<svg width="60" height="60" viewBox="0 0 60 60" fill="none" xmlns="http://www.w3.org/2000/svg">
<path d="M5 15.0074V45.0075C5 47.7675 7.2375 50.0075 10 50.0075H12.5V10.0074H10C7.2375 10.0074 5 12.2449 5 15.0074Z" fill="white" fill-opacity="0.6"/>
<path d="M50 10.0075H17.5V50.0075H50C52.76 50.0075 55 47.7675 55 45.0075V15.0075C55 12.245 52.76 10.0075 50 10.0075ZM47.5 35.0075C47.5 37.7675 45.26 40.0075 42.5 40.0075C39.74 40.0075 37.5 37.7675 37.5 35.0075C37.5 32.2475 39.74 30.0075 42.5 30.0075V23.475L32.5 26.81C32.5 26.81 32.5 37.46 32.5 37.5075C32.5 40.2675 30.26 42.5075 27.5 42.5075C24.74 42.5075 22.5 40.2675 22.5 37.5075C22.5 34.7475 24.74 32.5075 27.5 32.5075V25.0075C27.5 23.93 28.1875 22.9775 29.21 22.635L44.21 17.635C44.9725 17.38 45.8075 17.5075 46.4625 17.98C47.115 18.4475 47.5 19.205 47.5 20.0075C47.5 20.0075 47.5 34.9575 47.5 35.0075Z" fill="white" fill-opacity="0.6"/>
</svg>
