<svg width="60" height="60" viewBox="0 0 60 60" fill="none" xmlns="http://www.w3.org/2000/svg">
<path d="M25.9951 10.3173H13.4951C12.1144 10.3173 10.9951 11.418 10.9951 12.7759V25.0689C10.9951 26.4268 12.1144 27.5275 13.4951 27.5275H25.9951C27.3758 27.5275 28.4951 26.4268 28.4951 25.0689V12.7759C28.4951 11.418 27.3758 10.3173 25.9951 10.3173Z" fill="white" fill-opacity="0.6"/>
<path d="M25.9951 32.4448H13.4951C12.1144 32.4448 10.9951 33.5456 10.9951 34.9034V47.1965C10.9951 48.5543 12.1144 49.6551 13.4951 49.6551H25.9951C27.3758 49.6551 28.4951 48.5543 28.4951 47.1965V34.9034C28.4951 33.5456 27.3758 32.4448 25.9951 32.4448Z" fill="white" fill-opacity="0.6"/>
<path d="M48.4951 10.3173H35.9951C34.6144 10.3173 33.4951 11.418 33.4951 12.7759V25.0689C33.4951 26.4268 34.6144 27.5275 35.9951 27.5275H48.4951C49.8758 27.5275 50.9951 26.4268 50.9951 25.0689V12.7759C50.9951 11.418 49.8758 10.3173 48.4951 10.3173Z" fill="white" fill-opacity="0.6"/>
<path d="M48.4951 32.4448H35.9951C34.6144 32.4448 33.4951 33.5456 33.4951 34.9034V47.1965C33.4951 48.5543 34.6144 49.6551 35.9951 49.6551H48.4951C49.8758 49.6551 50.9951 48.5543 50.9951 47.1965V34.9034C50.9951 33.5456 49.8758 32.4448 48.4951 32.4448Z" fill="white" fill-opacity="0.6"/>
</svg>
