<svg width="60" height="60" viewBox="0 0 60 60" fill="none" xmlns="http://www.w3.org/2000/svg">
<path d="M0 30.6708C0 23.9398 5.45653 18.4833 12.1875 18.4833H35.625L22.5 42.8583H12.1875C5.45653 42.8583 0 37.4017 0 30.6708Z" fill="#36393F"/>
<path d="M15.4231 30.7345C15.4231 27.7814 14.0056 26.1277 11.8925 26.1277C9.76624 26.1277 8.34874 27.7814 8.34874 30.7345C8.34874 33.6877 9.76624 35.3414 11.8925 35.3414C14.0056 35.3414 15.4231 33.6877 15.4231 30.7345ZM13.73 30.7345C13.73 32.8345 13.0869 33.9895 11.8925 33.9895C10.6981 33.9895 10.0287 32.8345 10.0287 30.7345C10.0287 28.6345 10.6981 27.4795 11.8925 27.4795C13.0869 27.4795 13.73 28.6345 13.73 30.7345ZM23.6519 30.7345C23.6519 27.7814 22.2344 26.1277 20.1213 26.1277C17.995 26.1277 16.5775 27.7814 16.5775 30.7345C16.5775 33.6877 17.995 35.3414 20.1213 35.3414C22.2344 35.3414 23.6519 33.6877 23.6519 30.7345ZM21.9588 30.7345C21.9588 32.8345 21.3156 33.9895 20.1213 33.9895C18.9269 33.9895 18.2575 32.8345 18.2575 30.7345C18.2575 28.6345 18.9269 27.4795 20.1213 27.4795C21.3156 27.4795 21.9588 28.6345 21.9588 30.7345Z" fill="#8E9297"/>
<path d="M35.625 18.4833H47.8125C54.5435 18.4833 60 23.9398 60 30.6708C60 37.4017 54.5435 42.8583 47.8125 42.8583H22.5L35.625 18.4833Z" fill="#202225"/>
<path d="M40.8765 31.2858C40.4303 32.8083 39.039 33.5958 37.2671 33.9502L37.4771 35.3545C40.4434 34.7639 42.5565 33.0052 42.5565 29.8814C42.5565 27.427 41.1915 26.1277 39.249 26.1277C37.4378 26.1277 36.0859 27.3483 36.0859 29.1858C36.0859 30.9839 37.149 31.942 38.7503 31.942C39.5509 31.942 40.2465 31.6927 40.8765 31.2858ZM41.0078 30.0258C40.4565 30.4327 39.879 30.6558 39.2359 30.6558C38.1859 30.6558 37.6871 30.1045 37.6871 29.0939C37.6871 28.0439 38.3171 27.4402 39.2359 27.4402C40.2859 27.4402 41.0078 28.3327 41.0078 29.9733V30.0258ZM48.3619 31.2858C47.9156 32.8083 46.5244 33.5958 44.7525 33.9502L44.9625 35.3545C47.9288 34.7639 50.0419 33.0052 50.0419 29.8814C50.0419 27.427 48.6769 26.1277 46.7344 26.1277C44.9231 26.1277 43.5713 27.3483 43.5713 29.1858C43.5713 30.9839 44.6344 31.942 46.2356 31.942C47.0363 31.942 47.7319 31.6927 48.3619 31.2858ZM48.4931 30.0258C47.9419 30.4327 47.3644 30.6558 46.7213 30.6558C45.6713 30.6558 45.1725 30.1045 45.1725 29.0939C45.1725 28.0439 45.8025 27.4402 46.7213 27.4402C47.7713 27.4402 48.4931 28.3327 48.4931 29.9733V30.0258Z" fill="#8E9297"/>
</svg>
