<svg width="60" height="60" viewBox="0 0 60 60" fill="none" xmlns="http://www.w3.org/2000/svg">
<path d="M40.0051 20.618V8.03357H35.0051V20.618C35.0051 21.9531 35.5319 23.2334 36.4696 24.1774C37.4073 25.1215 38.679 25.6518 40.0051 25.6518H52.505V20.618H40.0051Z" fill="white" fill-opacity="0.6"/>
<path d="M35.0051 40.7533V53.3377H40.0051V40.7533H52.505V35.7195H40.0051C38.679 35.7195 37.4073 36.2499 36.4696 37.1939C35.5319 38.1379 35.0051 39.4183 35.0051 40.7533Z" fill="white" fill-opacity="0.6"/>
<path d="M20 20.618H7.5V25.6518H20C21.3261 25.6518 22.5979 25.1215 23.5355 24.1774C24.4732 23.2334 25 21.9531 25 20.618V8.03357H20V20.618Z" fill="white" fill-opacity="0.6"/>
<path d="M20 35.7195H7.5V40.7533H20V53.3377H25V40.7533C25 39.4183 24.4732 38.1379 23.5355 37.1939C22.5979 36.2499 21.3261 35.7195 20 35.7195Z" fill="white" fill-opacity="0.6"/>
</svg>
