<svg width="60" height="60" viewBox="0 0 60 60" fill="none" xmlns="http://www.w3.org/2000/svg">
<path d="M51.0044 27.5276V33.6741H11.0044V11.5466H33.5044V6.62938H11.0044C9.67832 6.62938 8.40654 7.14744 7.46887 8.06961C6.53117 8.99176 6.00439 10.2425 6.00439 11.5466V38.5913C6.00439 39.8954 6.53117 41.146 7.46887 42.0683C8.40654 42.9905 9.67832 43.5085 11.0044 43.5085H28.5044V48.4257H18.5044V53.343H43.5044V48.4257H33.5044V43.5085H51.0044C52.3304 43.5085 53.6021 42.9905 54.5399 42.0683C55.4776 41.146 56.0044 39.8954 56.0044 38.5913V27.5276H51.0044Z" fill="white" fill-opacity="0.6"/>
<path d="M58.5001 6.51064L54.8708 2.94138L48.5128 9.21922L42.1294 2.94138L38.5001 6.51064L44.8836 12.7632L38.5001 19.041L42.1294 22.6103L48.5128 16.3324L54.8708 22.6103L58.5001 19.041L52.1166 12.7632L58.5001 6.51064Z" fill="white" fill-opacity="0.6"/>
</svg>
