<svg width="60" height="60" viewBox="0 0 60 60" fill="none" xmlns="http://www.w3.org/2000/svg">
<path d="M29.9951 10.4833H7.49511C4.73369 10.4833 2.49512 12.7219 2.49512 15.4833V45.4833C2.49512 48.2447 4.73369 50.4833 7.49511 50.4833H29.9951C32.7565 50.4833 34.9951 48.2447 34.9951 45.4833V15.4833C34.9951 12.7219 32.7565 10.4833 29.9951 10.4833Z" fill="white" fill-opacity="0.6"/>
<path d="M54.995 10.4833H42.495C41.1143 10.4833 39.995 11.6026 39.995 12.9833V25.4833C39.995 26.864 41.1143 27.9833 42.495 27.9833H54.995C56.3758 27.9833 57.495 26.864 57.495 25.4833V12.9833C57.495 11.6026 56.3758 10.4833 54.995 10.4833Z" fill="white" fill-opacity="0.6"/>
<path d="M54.995 32.9833H42.495C41.1143 32.9833 39.995 34.1026 39.995 35.4833V47.9833C39.995 49.364 41.1143 50.4833 42.495 50.4833H54.995C56.3758 50.4833 57.495 49.364 57.495 47.9833V35.4833C57.495 34.1026 56.3758 32.9833 54.995 32.9833Z" fill="white" fill-opacity="0.6"/>
</svg>
