<svg width="60" height="60" viewBox="0 0 60 60" fill="none" xmlns="http://www.w3.org/2000/svg">
<path d="M6.72626 54.2743C6.72626 54.2743 7.586 44.0624 10.2042 41.4415C11.425 40.2204 12.999 39.5942 14.5954 39.5115L14.6313 46.3679L21.489 46.4018C21.4062 47.9986 20.7814 49.5785 19.5606 50.7974C16.9402 53.4183 6.72626 54.2743 6.72626 54.2743Z" fill="white" fill-opacity="0.6"/>
<path fill-rule="evenodd" clip-rule="evenodd" d="M13.9322 33.151L27.851 47.0674L31.3306 43.588L33.9404 54.8966L38.2898 50.5472V36.6286L46.989 27.9294C50.4686 24.45 57.428 16.0971 53.9482 7.05176C44.901 3.57197 36.5502 10.5315 33.0714 14.0119L24.3713 22.7102H10.4528L6.10327 27.0598L17.412 29.6694L13.9322 33.151ZM37.1907 22.3252C38.0692 23.669 39.5872 24.5569 41.3125 24.5569C44.0302 24.5569 46.2334 22.3537 46.2334 19.6359C46.2334 18.6533 45.9454 17.7379 45.4492 16.9696C44.5729 15.613 43.0476 14.715 41.3125 14.715C38.5947 14.715 36.3916 16.9182 36.3916 19.6359C36.3916 20.6284 36.6853 21.5522 37.1907 22.3252Z" fill="white" fill-opacity="0.6"/>
</svg>
