<svg width="60" height="60" viewBox="0 0 60 60" fill="none" xmlns="http://www.w3.org/2000/svg">
<path fill-rule="evenodd" clip-rule="evenodd" d="M10.0046 6.6503C7.24714 6.6503 5.00464 8.863 5.00464 11.5839V38.7184C5.00464 41.4417 7.24714 43.6519 10.0046 43.6519H27.5046V48.5855H17.5046V53.519H42.5046V48.5855H32.5046V43.6519H50.0046C52.7621 43.6519 55.0046 41.4417 55.0046 38.7184V11.5839C55.0046 8.863 52.7621 6.6503 50.0046 6.6503H10.0046ZM15.0046 37.485C19.1746 31.7189 24.6646 29.098 33.0046 29.098V35.8508L45.0046 24.3186L33.0046 12.8172V19.385C21.3346 21.0501 16.6846 29.2521 15.0046 37.485Z" fill="white" fill-opacity="0.6"/>
</svg>
