<svg width="60" height="60" viewBox="0 0 60 60" fill="none" xmlns="http://www.w3.org/2000/svg">
<path d="M47.5046 8.03372H35.0047V13.0676H47.5046V25.6524H52.5046V13.0676C52.5046 11.7325 51.9778 10.4522 51.0402 9.50812C50.1025 8.56408 48.8307 8.03372 47.5046 8.03372Z" fill="white" fill-opacity="0.6"/>
<path d="M47.5046 48.3051H35.0047V53.3389H47.5046C48.8307 53.3389 50.1025 52.8086 51.0402 51.8645C51.9778 50.9205 52.5046 49.6401 52.5046 48.3051V35.7204H47.5046V48.3051Z" fill="white" fill-opacity="0.6"/>
<path d="M7.49988 13.0676V25.6524H12.4999V13.0676H24.9999V8.03372H12.4999C11.1738 8.03372 9.90203 8.56408 8.96434 9.50812C8.02666 10.4522 7.49988 11.7325 7.49988 13.0676Z" fill="white" fill-opacity="0.6"/>
<path d="M12.4999 35.7204H7.49988V48.3051C7.49988 49.6401 8.02666 50.9205 8.96434 51.8645C9.90203 52.8086 11.1738 53.3389 12.4999 53.3389H24.9999V48.3051H12.4999V35.7204Z" fill="white" fill-opacity="0.6"/>
</svg>
