<svg width="60" height="60" viewBox="0 0 60 60" fill="none" xmlns="http://www.w3.org/2000/svg">
<path d="M49.3303 23.2861L52.5053 26.5038L46.9303 32.1539L52.5053 37.804L49.3303 41.0218L43.7553 35.3717L38.1804 41.0218L35.0054 37.804L40.5803 32.1539L35.0054 26.5038L38.1804 23.2861L43.7553 28.9361L49.3303 23.2861Z" fill="white" fill-opacity="0.6"/>
<path d="M28.4554 8.28671C27.9977 8.09584 27.4945 8.04692 27.0094 8.14615C26.5243 8.24538 26.0791 8.48829 25.7304 8.84411L15.0054 20.7524H7.50537C6.84233 20.7524 6.20645 21.0193 5.7376 21.4945C5.26876 21.9696 5.00537 22.6141 5.00537 23.286V38.488C5.00537 39.16 5.26876 39.8045 5.7376 40.2796C6.20645 40.7548 6.84233 41.0217 7.50537 41.0217H15.0054L25.7304 52.9553C26.08 53.3126 26.5268 53.5563 27.0137 53.6553C27.5005 53.7543 28.0055 53.7041 28.4641 53.5111C28.9227 53.3181 29.3142 52.9911 29.5887 52.5717C29.8632 52.1524 30.0083 51.6596 30.0054 51.1564V10.6177C30.0029 10.1175 29.8544 9.62919 29.5786 9.21438C29.3027 8.79957 28.9119 8.47678 28.4554 8.28671Z" fill="white" fill-opacity="0.6"/>
</svg>
