<svg width="60" height="60" viewBox="0 0 60 60" fill="none" xmlns="http://www.w3.org/2000/svg">
<path d="M12.1875 42.8583H47.8125C54.5435 42.8583 60 37.4017 60 30.6708C60 23.9398 54.5435 18.4833 47.8125 18.4833H12.1875C5.45653 18.4833 0 23.9398 0 30.6708C0 37.4017 5.45653 42.8583 12.1875 42.8583Z" fill="#EB3D47"/>
<path d="M20.0775 37.4833L19.7231 35.1798H15.195V23.8989H12.5765V37.4833H20.0775Z" fill="white"/>
<path d="M24.6757 37.4833V23.8989H22.0573V37.4833H24.6757Z" fill="white"/>
<path d="M39.2659 23.8989H36.549L32.9855 34.1758L29.363 23.7611L26.6068 24.2336L31.6074 37.5423H34.1668L39.2659 23.8989Z" fill="white"/>
<path d="M49.1996 37.4833V35.2783H43.6871V31.5377H48.1365L47.7821 29.2933H43.6871V26.1039H49.0027V23.8989H41.108V37.4833H49.1996Z" fill="white"/>
</svg>
