<svg width="60" height="60" viewBox="0 0 60 60" fill="none" xmlns="http://www.w3.org/2000/svg">
<path d="M38.3307 31.5839L43.8863 26.0469V39.103C43.8863 40.4792 42.7669 41.5947 41.3863 41.5947H40.8307C39.4499 41.5947 38.3307 40.4792 38.3307 39.103V31.5839Z" fill="white" fill-opacity="0.6"/>
<path d="M32.7791 18.1064V10.4493C32.7791 9.07323 31.6599 7.9577 30.2791 7.9577H29.7235C28.3429 7.9577 27.2235 9.07323 27.2235 10.4493V23.6433L32.7791 18.1064Z" fill="white" fill-opacity="0.6"/>
<path d="M27.2235 42.6588L27.4079 42.4735L32.7791 37.1203V50.3151C32.7791 51.6912 31.6599 52.8067 30.2791 52.8067H29.7235C28.3429 52.8067 27.2235 51.6912 27.2235 50.3151V42.6588Z" fill="white" fill-opacity="0.6"/>
<path d="M21.6684 29.1805L16.1129 34.7175V16.0555C16.1129 14.6793 17.2322 13.5638 18.6129 13.5638H19.1685C20.5492 13.5638 21.6684 14.6793 21.6684 16.0555V29.1805Z" fill="white" fill-opacity="0.6"/>
<path d="M10.5603 36.2998C10.5603 37.6759 9.44103 38.7914 8.06032 38.7914H7.50476C6.12405 38.7914 5.00476 37.6759 5.00476 36.2998V24.4647C5.00476 23.0885 6.12405 21.9731 7.50476 21.9731H8.06032C9.44103 21.9731 10.5603 23.0885 10.5603 24.4647V36.2998Z" fill="white" fill-opacity="0.6"/>
<path d="M55.0085 33.4968C55.0085 34.8729 53.8892 35.9884 52.5085 35.9884H51.953C50.5722 35.9884 49.453 34.8729 49.453 33.4968V27.2677C49.453 25.8916 50.5722 24.7761 51.953 24.7761H52.5085C53.8892 24.7761 55.0085 25.8916 55.0085 27.2677V33.4968Z" fill="white" fill-opacity="0.6"/>
<path d="M52.4998 11.122L49.3248 7.9577L7.4998 49.6423L10.6748 52.8067L21.1498 42.3918L24.2248 39.3022L52.4998 11.122Z" fill="white" fill-opacity="0.6"/>
</svg>
