<svg width="60" height="60" viewBox="0 0 60 60" fill="none" xmlns="http://www.w3.org/2000/svg">
<path d="M17.999 45.4828C17.999 43.8238 16.924 42.4828 15.5995 42.4828H8.39855C7.07402 42.4828 5.99902 43.8238 5.99902 45.4828V51.4828C5.99902 53.1418 7.07402 54.4828 8.39855 54.4828H15.5971C16.9216 54.4828 17.9966 53.1418 17.9966 51.4828V45.4828H17.999Z" fill="#E93848"/>
<path d="M36.001 27.2103C36.001 25.702 34.9257 24.483 33.601 24.483H26.401C25.0763 24.483 24.001 25.702 24.001 27.2103V51.7557C24.001 53.264 25.0763 54.483 26.401 54.483H33.601C34.9257 54.483 36.001 53.264 36.001 51.7557V27.2103Z" fill="white" fill-opacity="0.6"/>
<path d="M54.0013 9.14946C54.0013 7.67479 52.926 6.48279 51.6013 6.48279H44.4013C43.0765 6.48279 42.0013 7.67479 42.0013 9.14946V51.816C42.0013 53.2908 43.0765 54.4828 44.4013 54.4828H51.6013C52.926 54.4828 54.0013 53.2908 54.0013 51.816V9.14946Z" fill="white" fill-opacity="0.6"/>
</svg>
