<svg width="60" height="60" viewBox="0 0 60 60" fill="none" xmlns="http://www.w3.org/2000/svg">
<path d="M53.8191 20.5847C53.0816 20.1332 52.1591 20.0962 51.3866 20.4761L45.0041 23.6262V17.7503C45.0041 15.0295 42.7616 12.8168 40.0041 12.8168H10.0041C7.24665 12.8168 5.00415 15.0295 5.00415 17.7503V42.4181C5.00415 45.1415 7.24665 47.3517 10.0041 47.3517H40.0041C42.7616 47.3517 45.0041 45.1415 45.0041 42.4181V36.5423L51.3866 39.6899C51.7391 39.865 52.1216 39.9514 52.5041 39.9514C52.9616 39.9514 53.4166 39.8256 53.8191 39.5838C54.5541 39.1324 55.0041 38.3406 55.0041 37.4846V22.6839C55.0041 21.8279 54.5541 21.0361 53.8191 20.5847Z" fill="white" fill-opacity="0.6"/>
</svg>
