<svg width="60" height="60" viewBox="0 0 60 60" fill="none" xmlns="http://www.w3.org/2000/svg">
<path d="M25.7384 8.75072C26.4534 8.03334 27.5284 7.82013 28.4634 8.20641C29.3984 8.59019 30.0059 9.51074 30.0059 10.5216V50.6548C30.0059 51.6707 29.3984 52.5862 28.4634 52.975C27.5284 53.3638 26.4534 53.1481 25.7384 52.4307L15.0059 40.6215H7.50586C6.13086 40.6215 5.00586 39.4927 5.00586 38.1132V23.0633C5.00586 21.6862 6.13086 20.5549 7.50586 20.5549H15.0059L25.7384 8.75072ZM35.0059 23.063C39.1409 23.063 42.5059 26.4419 42.5059 30.5882C42.5059 34.7395 39.1409 38.1132 35.0059 38.1132V33.0965C36.3834 33.0965 37.5059 31.9703 37.5059 30.5882C37.5059 29.2061 36.3834 28.0798 35.0059 28.0798V23.063Z" fill="white" fill-opacity="0.6"/>
</svg>
