<svg width="60" height="60" viewBox="0 0 60 60" fill="none" xmlns="http://www.w3.org/2000/svg">
<path d="M16.8618 47.9831H40.005C42.7625 47.9831 45.005 45.743 45.005 42.983V37.028L51.3875 40.218C51.74 40.3955 52.1225 40.483 52.505 40.483C52.9625 40.483 53.4175 40.3555 53.82 40.1105C54.555 39.653 55.005 38.8505 55.005 37.983V22.983C55.005 22.1155 54.555 21.313 53.82 20.8555C53.0825 20.398 52.16 20.3605 51.3875 20.7455L45.005 23.938V19.8398L16.8618 47.9831ZM30.6485 12.983H10.005C7.2475 12.983 5.005 15.2255 5.005 17.983V38.6265L30.6485 12.983Z" fill="white" fill-opacity="0.6"/>
<path d="M45.9619 4.42715L0 50.3891L3.53553 53.9247L49.4974 7.96269L45.9619 4.42715Z" fill="#E93848"/>
</svg>
