<svg width="60" height="60" viewBox="0 0 60 60" fill="none" xmlns="http://www.w3.org/2000/svg">
<path fill-rule="evenodd" clip-rule="evenodd" d="M29.8464 5.3628C28.9826 7.03301 27.3336 10.3735 27.3336 11.78C27.3336 12.6892 27.6561 13.5612 28.2305 14.2042C28.8048 14.8471 29.5839 15.2083 30.3961 15.2083C31.2082 15.2083 31.9871 14.8471 32.5615 14.2042C33.136 13.5612 33.4586 12.6892 33.4586 11.78C33.4586 10.3735 31.8881 7.03301 30.9457 5.36278C30.8914 5.25288 30.8117 5.16125 30.7152 5.09745C30.6184 5.03365 30.5081 5 30.3961 5C30.2838 5 30.1737 5.03365 30.0769 5.09745C29.9804 5.16125 29.9008 5.25288 29.8464 5.3628Z" fill="#FDFE3C"/>
<path fill-rule="evenodd" clip-rule="evenodd" d="M12.2187 30.3955C11.8496 30.5474 11.5355 30.808 11.318 31.1426C11.1005 31.4772 10.99 31.87 11.001 32.269V51.9999C11.001 53.1044 11.8964 53.9999 13.001 53.9999H45.4706C46.4687 53.8498 47.3795 53.3467 48.0381 52.5819C48.6966 51.817 49.0588 50.8412 49.0588 49.8319C49.0588 48.8226 48.6966 47.8467 48.0381 47.0818C47.3796 46.3169 46.4684 45.8137 45.4703 45.6637L45.4706 30.8639C45.4706 30.583 45.377 30.3018 45.377 30.0209C45.1645 27.6444 44.0622 25.4359 42.2905 23.838C40.5187 22.24 38.2086 21.3704 35.8229 21.4035C35.0242 21.4175 34.2312 21.521 33.4586 21.7112V20.6544C33.4586 18.963 32.0874 17.5919 30.3961 17.5919C28.7047 17.5919 27.3336 18.963 27.3336 20.6544V24.1215L12.2187 30.3955ZM39.7359 26.5884C38.6592 25.6333 37.2618 25.1197 35.8229 25.1502C35.0202 25.1616 34.2265 25.3204 33.4813 25.6186L33.4586 25.6281V27.8668C33.4586 29.5581 32.0874 30.9293 30.3961 30.9293C28.805 30.9293 27.4973 29.7158 27.3478 28.164L18.1324 31.9883H41.7239V30.8639C41.7376 30.6718 41.7055 30.4791 41.6302 30.3018C41.489 28.8696 40.8125 27.5434 39.7359 26.5884ZM15.3099 48.8484H33.4815C33.7601 48.8487 34.0359 48.7925 34.2922 48.683C34.5486 48.5738 34.7801 48.4136 34.9727 48.2122C35.1654 48.0107 35.3151 47.7724 35.4131 47.5115C35.5109 47.2506 35.5548 46.9725 35.5421 46.694C35.4992 46.1617 35.2685 45.6621 34.8908 45.2846C34.5133 44.9069 34.0137 44.6762 33.4815 44.6334H15.3099V48.8484ZM15.3099 40.6058H33.4815C34.028 40.6058 34.5521 40.3885 34.9386 40.002C35.3251 39.6157 35.5421 39.0914 35.5421 38.5449C35.5607 38.2609 35.5107 37.9767 35.3967 37.7158C35.2826 37.4551 35.1076 37.2256 34.8865 37.0463C34.7089 36.8475 34.4928 36.6869 34.2512 36.5743C34.0097 36.4616 33.7478 36.3991 33.4815 36.3907H15.3099V40.6058Z" fill="#FDFE3C"/>
</svg>
