<svg width="60" height="60" viewBox="0 0 60 60" fill="none" xmlns="http://www.w3.org/2000/svg">
<path d="M30.005 27.4492L52.4175 13.5887C51.6975 13.1901 50.885 12.9409 50.005 12.9409H10.0049C9.12494 12.9409 8.30994 13.1901 7.59244 13.5887L30.005 27.4492Z" fill="white" fill-opacity="0.6"/>
<path d="M31.3231 32.4963C30.9206 32.7455 30.4631 32.8725 30.0056 32.8725C29.5481 32.8725 29.0906 32.7455 28.6881 32.4988L5.01312 17.856C5.01312 17.8784 5.00562 17.9009 5.00562 17.9208V40.3447C5.00562 43.0904 7.24811 45.3278 10.0056 45.3278H50.0056C52.7631 45.3278 55.0056 43.0904 55.0056 40.3447V17.9208C55.0056 17.8984 54.9981 17.8759 54.9981 17.8535L31.3231 32.4963Z" fill="white" fill-opacity="0.6"/>
</svg>
