<svg width="60" height="60" viewBox="0 0 60 60" fill="none" xmlns="http://www.w3.org/2000/svg">
<path fill-rule="evenodd" clip-rule="evenodd" d="M16.2498 4.99976C14.1787 4.99976 12.4998 6.67871 12.4998 8.74976V37.4998H8.74976C6.67871 37.4998 4.99976 39.1787 4.99976 41.2498C4.99976 43.321 6.67871 44.9998 8.74976 44.9998H12.4998V51.2496C12.4998 53.3207 14.1787 54.9996 16.2498 54.9996C18.3208 54.9996 19.9998 53.3207 19.9998 51.2496V44.9998H23.7498C25.8208 44.9998 27.4998 43.321 27.4998 41.2498C27.4998 39.1787 25.8208 37.4998 23.7498 37.4998H19.9998V8.74976C19.9998 6.67871 18.3208 4.99976 16.2498 4.99976ZM39.9996 8.74976C39.9996 6.67871 41.6788 4.99976 43.7496 4.99976C45.8207 4.99976 47.4996 6.67871 47.4996 8.74976V14.9998H51.2496C53.3207 14.9998 54.9996 16.6787 54.9996 18.7498C54.9996 20.8208 53.3207 22.4998 51.2496 22.4998H47.4996V51.2496C47.4996 53.3207 45.8207 54.9996 43.7496 54.9996C41.6788 54.9996 39.9996 53.3207 39.9996 51.2496V22.4998H36.2498C34.1787 22.4998 32.4998 20.8208 32.4998 18.7498C32.4998 16.6787 34.1787 14.9998 36.2498 14.9998H39.9996V8.74976Z" fill="white" fill-opacity="0.6"/>
</svg>
