<svg width="60" height="60" viewBox="0 0 60 60" fill="none" xmlns="http://www.w3.org/2000/svg">
<path d="M47.4997 10.6167H12.4998C11.1737 10.6167 9.9019 11.1506 8.96422 12.1008C8.02654 13.0511 7.49976 14.3399 7.49976 15.6838L7.49976 46.0865C7.49976 47.4304 8.02654 48.7192 8.96422 49.6695C9.9019 50.6198 11.1737 51.1536 12.4998 51.1536H22.4998V46.0865H12.4998V20.7509H47.4997V46.0865H37.4998V51.1536H47.4997C50.2497 51.1536 52.4997 48.8734 52.4997 46.0865V15.6838C52.4997 14.3399 51.973 13.0511 51.0353 12.1008C50.0976 11.1506 48.8258 10.6167 47.4997 10.6167ZM29.9998 25.818L19.9998 35.9523H27.4998V51.1536H32.4998V35.9523H39.9997L29.9998 25.818Z" fill="white" fill-opacity="0.6"/>
</svg>
