<svg width="60" height="60" viewBox="0 0 60 60" fill="none" xmlns="http://www.w3.org/2000/svg">
<g clip-path="url(#clip0_502_7519)">
<path d="M32.5 0.483398C41.2995 0.483398 48.6055 7.05989 49.822 15.5857C49.8813 15.5846 49.9405 15.5841 50 15.5841C55.5228 15.5841 60 20.0913 60 25.6512C60 27.5911 59.455 29.4029 58.5107 30.9397C54.9518 27.6555 50.2085 25.6512 45 25.6512C37.5972 25.6512 31.1338 29.7002 27.6758 35.7183H12.5C5.6075 35.7183 0 30.0732 0 23.1344C0 16.1956 5.6075 10.5505 12.5 10.5505C15.9825 10.5505 19.195 11.6931 22.9375 17.0438L24.98 15.5941C22.545 12.1109 19.9675 10.0849 17.555 8.93223C20.65 3.78038 26.225 0.483398 32.5 0.483398Z" fill="white"/>
<path d="M53.233 44.003L47.5006 49.774V35.7152H42.5006V49.774L36.7681 44.003L33.2331 47.5617L45.0006 59.4082L56.768 47.5617L53.233 44.003Z" fill="#2DC775"/>
</g>
<defs>
<clipPath id="clip0_502_7519">
<rect width="60" height="60" fill="white"/>
</clipPath>
</defs>
</svg>
