<svg width="60" height="60" viewBox="0 0 60 60" fill="none" xmlns="http://www.w3.org/2000/svg">
<path d="M41.8044 7H24.1059C23.8477 7 23.5952 7.07658 23.3805 7.22005C23.1658 7.36352 22.9985 7.56745 22.8997 7.80603C22.8009 8.04461 22.7751 8.30712 22.8255 8.56038C22.8759 8.81365 23.0003 9.04627 23.1829 9.22884L26.493 12.5389C26.9826 13.0286 27.2578 13.6928 27.2578 14.3853C27.2578 15.0777 26.9826 15.7419 26.493 16.2316L22.8004 19.9245C21.3314 21.3935 20.5061 23.3859 20.5061 25.4634C20.5061 27.5409 21.3314 29.5333 22.8004 31.0023C23.29 31.492 23.9541 31.7671 24.6466 31.7671C25.3391 31.7671 26.0033 31.492 26.493 31.0023L32.0322 25.4634C33.0115 24.484 34.3398 23.9339 35.7247 23.9339C37.1099 23.9339 38.4382 24.484 39.4173 25.4634L40.8811 26.9272C41.0636 27.1098 41.2963 27.2342 41.5496 27.2846C41.8028 27.335 42.0655 27.3092 42.3039 27.2104C42.5426 27.1115 42.7465 26.9442 42.8901 26.7295C43.0335 26.5148 43.11 26.2624 43.11 26.0042V8.30555C43.11 7.9593 42.9724 7.62722 42.7277 7.38239C42.4828 7.13755 42.1506 7 41.8044 7Z" fill="white" fill-opacity="0.6"/>
<path d="M18.3056 53.9996H36.0042C36.2624 53.9996 36.5149 53.9231 36.7295 53.7797C36.9441 53.6361 37.1115 53.4322 37.2102 53.1935C37.3092 52.9551 37.335 52.6925 37.2846 52.4392C37.2342 52.1859 37.1097 51.9535 36.9272 51.7707L33.6171 48.4606C33.1275 47.9711 32.8523 47.3068 32.8523 46.6143C32.8523 45.9219 33.1275 45.2579 33.6171 44.768L37.3097 41.0751C38.7787 39.6061 39.6041 37.6138 39.6041 35.5362C39.6041 33.4588 38.7787 31.4664 37.3097 29.9973C36.8201 29.5077 36.1559 29.2326 35.4634 29.2326C34.7709 29.2326 34.1067 29.5077 33.6171 29.9973L28.0779 35.5362C27.0985 36.5156 25.7703 37.0658 24.3853 37.0658C23.0002 37.0658 21.672 36.5156 20.6926 35.5362L19.2289 34.0724C19.0463 33.8899 18.8136 33.7656 18.5604 33.7152C18.3071 33.6648 18.0446 33.6904 17.806 33.7894C17.5674 33.8881 17.3635 34.0554 17.22 34.2701C17.0766 34.485 17 34.7372 17 34.9954V52.694C17 53.0403 17.1376 53.3724 17.3824 53.6173C17.6272 53.8622 17.9593 53.9996 18.3056 53.9996Z" fill="white" fill-opacity="0.6"/>
</svg>
