<svg width="60" height="60" viewBox="0 0 60 60" fill="none" xmlns="http://www.w3.org/2000/svg">
<path d="M30 5.4834C16.215 5.4834 5 16.7009 5 30.4834C5 44.2709 16.215 55.4834 30 55.4834C43.785 55.4834 55 44.2709 55 30.4834C55 16.7009 43.785 5.4834 30 5.4834ZM30 46.1084C28.275 46.1084 26.875 44.7109 26.875 42.9834C26.875 41.2584 28.275 39.8584 30 39.8584C31.725 39.8584 33.125 41.2584 33.125 42.9834C33.125 44.7109 31.725 46.1084 30 46.1084ZM32.5 35.1709V37.9834H27.5V30.4834H30C32.76 30.4834 35 28.2409 35 25.4834C35 22.7234 32.76 20.4834 30 20.4834C27.24 20.4834 25 22.7234 25 25.4834H20C20 19.9709 24.4875 15.4834 30 15.4834C35.5125 15.4834 40 19.9709 40 25.4834C40 30.1359 36.8075 34.0559 32.5 35.1709Z" fill="white" fill-opacity="0.6"/>
</svg>
