<svg width="60" height="60" viewBox="0 0 60 60" fill="none" xmlns="http://www.w3.org/2000/svg">
<path d="M49.9987 22.61L39.4987 21.6266C38.4987 21.6266 37.7487 20.889 37.4987 20.1515L33.4987 10.5635C32.7487 8.59668 29.7487 8.59668 28.9987 10.5635L24.4987 20.3974C24.2487 21.1349 23.4987 21.6266 22.4987 21.8724L11.9987 22.61C9.74865 22.8558 8.99865 25.5601 10.4987 27.0352L18.4987 33.9189C19.2487 34.4106 19.4987 35.394 19.2487 36.3774L16.7487 46.4572C16.2487 48.6698 18.4987 50.1449 20.4987 49.1615L29.4987 43.7528C30.2487 43.2611 31.2487 43.2611 31.9987 43.7528L40.9987 49.1615C42.9987 50.3907 45.2487 48.6698 44.7487 46.4572L42.2487 36.3774C41.9987 35.394 42.2487 34.6565 42.9987 33.9189L50.9987 27.0352C53.2487 25.5601 52.2487 22.8558 49.9987 22.61ZM30.9987 38.3442L21.4987 43.9987L23.9987 33.4273L15.7487 26.2977L26.7487 25.3143L30.9987 15.4804L35.2487 25.3143L46.2487 26.2977L37.9987 33.4273L40.4987 43.9987L30.9987 38.3442Z" fill="white"/>
</svg>
