<svg width="60" height="60" viewBox="0 0 60 60" fill="none" xmlns="http://www.w3.org/2000/svg">
<path fill-rule="evenodd" clip-rule="evenodd" d="M11 8C11 3.58167 14.5817 0 19 0H43C47.4183 0 51 3.58167 51 8V52C51 56.4183 47.4183 60 43 60H19C14.5817 60 11 56.4183 11 52V8ZM17 12C17 9.79089 18.7909 8 21 8H41C43.2092 8 45 9.79089 45 12V36C45 38.2091 43.2092 40 41 40H21C18.7909 40 17 38.2091 17 36V12ZM29 46C25.6863 46 23 46.6863 23 50C23 53.3137 25.6863 54 29 54H33C36.3137 54 39 53.3137 39 50C39 46.6863 36.3137 46 33 46H29Z" fill="#3BA55D"/>
</svg>
