<svg width="60" height="60" viewBox="0 0 60 60" fill="none" xmlns="http://www.w3.org/2000/svg">
<path d="M30.2526 5.73572L55.0001 30.4832L51.6892 33.7941C50.7776 32.7319 49.7067 31.8103 48.5135 31.0666L47.9301 30.4832H47.9276L47.7739 30.6369C45.8328 29.5887 43.6109 28.9938 41.2501 28.9938C33.9393 28.9938 27.9612 34.6994 27.5255 41.9006L24.9475 39.3232L10.805 53.4632L7.27002 49.9282L21.4125 35.7882L10.805 25.1832L14.34 21.6457L17.8775 25.1832V25.1782L30.2526 12.8057L26.7151 9.26822L30.2526 5.73572Z" fill="white" fill-opacity="0.6"/>
<path d="M52.5001 42.7438C52.5001 48.957 47.4633 53.9938 41.2501 53.9938C35.0369 53.9938 30.0001 48.957 30.0001 42.7438C30.0001 36.5306 35.0369 31.4938 41.2501 31.4938C47.4633 31.4938 52.5001 36.5306 52.5001 42.7438Z" fill="#E93848"/>
</svg>
