<svg width="60" height="60" viewBox="0 0 60 60" fill="none" xmlns="http://www.w3.org/2000/svg">
<g clip-path="url(#clip0_1665_27)">
<path fill-rule="evenodd" clip-rule="evenodd" d="M50.8494 35.5948C53.0797 36.1828 55.3232 36.3685 57.5002 36.1973C57.4767 36.2878 57.4524 36.3785 57.4279 36.469C53.7987 49.8003 39.8742 57.715 26.3274 54.1423C25.8629 54.0198 25.4049 53.8855 24.9538 53.7395C19.8656 52.0945 14.7737 50 9.42621 50H8.75018C6.67911 50 5.00018 48.321 5.00018 46.25C5.00018 44.179 6.67911 42.5 8.75018 42.5C11.8981 42.5 9.91543 39.646 8.68803 36.9138C8.20271 35.8335 7.16556 35 5.98128 35H3.75018C1.67912 35 0.000183105 33.321 0.000183105 31.25C0.000183105 29.179 1.67912 27.5 3.75018 27.5C5.95453 27.5 7.76416 25.8185 8.32946 23.6879C8.34333 23.6357 8.35736 23.5835 8.37158 23.5312C8.83533 21.8278 7.45318 20.0468 6.12458 18.8842C5.43876 18.2841 5.00018 17.4218 5.00018 16.25C5.00018 14.1789 6.67911 12.5 8.75018 12.5C12.5998 12.5 16.1914 10.7965 19.4737 8.7851C25.2317 5.25653 32.4032 3.9936 39.4719 5.8579C39.5677 5.8831 39.6629 5.90881 39.7579 5.93501C38.5162 7.70678 37.5562 9.71435 36.9579 11.9123C34.1497 22.2277 40.3692 32.8308 50.8494 35.5948ZM23.1553 21.7902C21.7689 21.4245 20.3496 21.9895 19.5864 23.0991C19.0513 23.8771 17.9798 24.6507 16.7416 24.3241C15.601 24.0233 14.7075 22.7627 15.3435 21.5016C16.9556 18.3051 20.6803 16.5599 24.318 17.5193C27.9557 18.4787 30.2949 21.8231 30.0672 25.3848C29.9774 26.7898 28.5632 27.4418 27.4227 27.141C26.1844 26.8145 25.6494 25.6173 25.5812 24.6801C25.4839 23.3436 24.5418 22.1559 23.1553 21.7902ZM40.9179 37.317C40.4252 36.3555 39.4732 35.601 38.3272 35.2988L26.6029 32.2068C25.4567 31.9045 24.2489 32.0893 23.334 32.6795C22.3971 33.2838 21.7709 34.321 21.9034 35.6055C22.3265 39.7068 25.2639 43.3195 29.5527 44.4505C33.8414 45.5815 38.2204 43.8985 40.6704 40.555C41.4377 39.5078 41.4222 38.3013 40.9179 37.317Z" fill="white" fill-opacity="0.6"/>
<path d="M51.2502 10C49.8694 10 48.7502 11.1193 48.7502 12.5V16.25H45.0002C43.6194 16.25 42.5002 17.3693 42.5002 18.75C42.5002 20.1307 43.6194 21.25 45.0002 21.25H48.7502V25C48.7502 26.3808 49.8694 27.5 51.2502 27.5C52.6309 27.5 53.7502 26.3808 53.7502 25V21.25H57.5002C58.8809 21.25 60.0002 20.1307 60.0002 18.75C60.0002 17.3693 58.8809 16.25 57.5002 16.25H53.7502V12.5C53.7502 11.1193 52.6309 10 51.2502 10Z" fill="white" fill-opacity="0.6"/>
</g>
<defs>
<clipPath id="clip0_1665_27">
<rect width="60" height="60" fill="white"/>
</clipPath>
</defs>
</svg>
