<svg width="60" height="60" viewBox="0 0 60 60" fill="none" xmlns="http://www.w3.org/2000/svg">
<path d="M37.5 2.5H22.5V7.5H37.5V2.5ZM27.5 35H32.5V20H27.5V35ZM47.575 18.475L51.125 14.925C50.05 13.65 48.875 12.45 47.6 11.4L44.05 14.95C40.175 11.85 35.3 10 30 10C17.575 10 7.5 20.075 7.5 32.5C7.5 44.925 17.55 55 30 55C42.45 55 52.5 44.925 52.5 32.5C52.5 27.2 50.65 22.325 47.575 18.475ZM30 50C20.325 50 12.5 42.175 12.5 32.5C12.5 22.825 20.325 15 30 15C39.675 15 47.5 22.825 47.5 32.5C47.5 42.175 39.675 50 30 50Z" fill="white" fill-opacity="0.6"/>
</svg>
