<svg width="60" height="60" viewBox="0 0 60 60" fill="none" xmlns="http://www.w3.org/2000/svg">
<path fill-rule="evenodd" clip-rule="evenodd" d="M35 20.4978C35 26.0104 30.515 30.4979 25 30.4979C19.4875 30.4979 15 26.0104 15 20.4978C15 14.9853 19.485 10.4978 25 10.4978C30.515 10.4978 35 14.9853 35 20.4978ZM5 47.9979C5 39.1654 13.225 32.9979 25 32.9979C36.7775 32.9979 45 39.1654 45 47.9979V50.4979H5V47.9979Z" fill="white" fill-opacity="0.6"/>
<path d="M50.0002 50.4982H55.0002V47.9982C55.0002 41.5914 50.6742 36.5869 43.8032 34.3212C47.6552 37.7649 50.0002 42.4979 50.0002 47.9982V50.4982Z" fill="white" fill-opacity="0.6"/>
<path d="M37.2084 30.2521C41.6642 29.2438 45.0002 25.2521 45.0002 20.4978C45.0002 15.4057 41.1732 11.1883 36.2427 10.5746C38.5804 13.2206 40.0002 16.6959 40.0002 20.4978C40.0002 24.105 38.7222 27.4183 36.5944 30.0083C36.8007 30.0873 37.0054 30.1686 37.2084 30.2521Z" fill="white" fill-opacity="0.6"/>
</svg>
