<svg width="60" height="60" viewBox="0 0 60 60" fill="none" xmlns="http://www.w3.org/2000/svg">
<path d="M52.945 4.75085L56.48 8.28585L10.3026 54.4658L6.76758 50.9283L52.945 4.75085Z" fill="white" fill-opacity="0.6"/>
<path d="M45.0003 26.8041L26.322 45.4833H52.5003V42.9833C48.3603 42.9833 45.0003 39.6258 45.0003 35.4833V26.8041Z" fill="white" fill-opacity="0.6"/>
<path d="M22.3926 49.4128L23.822 47.9833H38.6123C36.8798 50.9583 33.6898 52.9833 29.9998 52.9833C26.9371 52.9833 24.2189 51.5883 22.3926 49.4128Z" fill="white" fill-opacity="0.6"/>
<path d="M30 7.98328C33.5425 7.98328 36.775 9.23328 39.335 11.2858L14.9951 35.6283C14.9951 35.603 14.9964 35.5783 14.9977 35.554C14.9989 35.5303 15.0001 35.5068 15.0001 35.4833V22.9833C15.0001 14.6983 21.7151 7.98328 30 7.98328Z" fill="white" fill-opacity="0.6"/>
</svg>
