<svg width="60" height="60" viewBox="0 0 60 60" fill="none" xmlns="http://www.w3.org/2000/svg">
<path d="M7.27565 55.6695H23.1849C24.4395 55.6695 25.4577 54.6479 25.4577 53.3889C25.4577 52.1303 24.4395 51.1087 23.1849 51.1087H12.7621L27.0645 36.7578C27.952 35.8673 27.952 34.4238 27.0645 33.5332C26.6213 33.0874 26.0395 32.8651 25.4577 32.8651C24.8758 32.8651 24.294 33.0874 23.8508 33.5332L9.54842 47.8841V37.4259C9.54842 36.1672 8.53022 35.1455 7.27565 35.1455C6.02109 35.1455 5.00293 36.1672 5.00293 37.4259V53.3889C5.00293 54.6479 6.02109 55.6695 7.27565 55.6695Z" fill="white" fill-opacity="0.6"/>
<path d="M32.9394 27.636C33.8269 28.5265 35.2655 28.5265 36.1531 27.636L50.4555 13.2852V23.7433C50.4555 25.0021 51.4736 26.0237 52.7284 26.0237C53.9828 26.0237 55.0009 25.0021 55.0009 23.7433V7.78032C55.0009 6.52152 53.9828 5.49988 52.7284 5.49988H36.819C35.5644 5.49988 34.5462 6.52152 34.5462 7.78032C34.5462 9.03912 35.5644 10.0608 36.819 10.0608H47.2418L32.9394 24.4115C32.0519 25.302 32.0519 26.7455 32.9394 27.636Z" fill="white" fill-opacity="0.6"/>
</svg>
