<svg width="60" height="60" viewBox="0 0 60 60" fill="none" xmlns="http://www.w3.org/2000/svg">
<path d="M47.5109 4.98499H27.4985C24.7469 4.98499 22.4955 7.23636 22.4955 9.98806V22.4957C22.4955 25.2473 20.2441 27.4987 17.4924 27.4987C11.964 27.4987 7.48633 31.9765 7.48633 37.5048V50.0124C7.48633 52.764 9.7377 55.0154 12.4894 55.0154H32.5016C35.2533 55.0154 37.5046 52.764 37.5046 50.0124V37.5048C37.5046 34.7532 39.756 32.5018 42.5076 32.5018C48.0362 32.5018 52.5138 28.024 52.5138 22.4957V9.98806C52.5138 7.23636 50.2624 4.98499 47.5109 4.98499ZM30.0001 50.0124H14.9909C13.6151 50.0124 12.4894 48.8867 12.4894 47.5108C12.4894 46.1352 13.6151 45.0095 14.9909 45.0095H30.0001C31.3759 45.0095 32.5016 46.1352 32.5016 47.5108C32.5016 48.8867 31.3759 50.0124 30.0001 50.0124ZM30.0001 40.0062H14.9909C13.6151 40.0062 12.4894 38.8805 12.4894 37.5048C12.4894 36.129 13.6151 35.0033 14.9909 35.0033H30.0001C31.3759 35.0033 32.5016 36.129 32.5016 37.5048C32.5016 38.8805 31.3759 40.0062 30.0001 40.0062ZM45.0092 24.9972H30.0001C28.6242 24.9972 27.4985 23.8715 27.4985 22.4957C27.4985 21.1198 28.6242 19.9941 30.0001 19.9941H45.0092C46.3852 19.9941 47.5109 21.1198 47.5109 22.4957C47.5109 23.8715 46.3852 24.9972 45.0092 24.9972ZM45.0092 14.9911H30.0001C28.6242 14.9911 27.4985 13.8654 27.4985 12.4896C27.4985 11.1137 28.6242 9.98806 30.0001 9.98806H45.0092C46.3852 9.98806 47.5109 11.1137 47.5109 12.4896C47.5109 13.8654 46.3852 14.9911 45.0092 14.9911Z" fill="white" fill-opacity="0.6"/>
</svg>
