<svg width="60" height="60" viewBox="0 0 60 60" fill="none" xmlns="http://www.w3.org/2000/svg">
<path d="M26.475 37.5583C27.5 36.5833 27.5 34.9833 26.475 34.0083C25.7742 33.315 25.2178 32.4896 24.8381 31.5799C24.4584 30.6701 24.2628 29.6941 24.2628 28.7083C24.2628 27.7225 24.4584 26.7465 24.8381 25.8367C25.2178 24.927 25.7742 24.1016 26.475 23.4083L35.3 14.5833C35.9933 13.8825 36.8187 13.3261 37.7285 12.9464C38.6382 12.5666 39.6142 12.3711 40.6 12.3711C41.5858 12.3711 42.5619 12.5666 43.4716 12.9464C44.3814 13.3261 45.2068 13.8825 45.9 14.5833C46.6009 15.2766 47.1573 16.102 47.537 17.0117C47.9167 17.9215 48.1122 18.8975 48.1122 19.8833C48.1122 20.8691 47.9167 21.8451 47.537 22.7549C47.1573 23.6646 46.6009 24.49 45.9 25.1833L44.725 26.3833C45.425 28.3333 45.75 30.3833 45.725 32.4333L49.45 28.7083C51.7916 26.3632 53.1068 23.1848 53.1068 19.8708C53.1068 16.5569 51.7916 13.3784 49.45 11.0333C47.105 8.69176 43.9265 7.37659 40.6125 7.37659C37.2986 7.37659 34.1201 8.69176 31.775 11.0333L22.925 19.8833C20.5835 22.2284 19.2683 25.4069 19.2683 28.7208C19.2683 32.0348 20.5835 35.2132 22.925 37.5583C23.9 38.5333 25.5 38.5333 26.475 37.5583Z" fill="white" fill-opacity="0.6"/>
<path d="M37.075 23.4083C36.1 22.4333 34.5 22.4333 33.525 23.4083C33.2822 23.6358 33.0887 23.9107 32.9564 24.2161C32.8241 24.5214 32.7558 24.8506 32.7558 25.1833C32.7558 25.5161 32.8241 25.8453 32.9564 26.1506C33.0887 26.4559 33.2822 26.7308 33.525 26.9583C34.2259 27.6516 34.7823 28.477 35.162 29.3867C35.5417 30.2965 35.7372 31.2725 35.7372 32.2583C35.7372 33.2441 35.5417 34.2201 35.162 35.1299C34.7823 36.0396 34.2259 36.865 33.525 37.5583L24.7 46.3833C24.0068 47.0842 23.1814 47.6405 22.2716 48.0203C21.3619 48.4 20.3858 48.5955 19.4 48.5955C18.4142 48.5955 17.4382 48.4 16.5285 48.0203C15.6187 47.6405 14.7933 47.0842 14.1 46.3833C13.3992 45.69 12.8428 44.8646 12.4631 43.9549C12.0834 43.0451 11.8878 42.0691 11.8878 41.0833C11.8878 40.0975 12.0834 39.1215 12.4631 38.2117C12.8428 37.302 13.3992 36.4766 14.1 35.7833L15.275 34.6083C14.575 32.6333 14.25 30.5833 14.275 28.5333L10.55 32.2583C8.20849 34.6034 6.89331 37.7819 6.89331 41.0958C6.89331 44.4098 8.20849 47.5882 10.55 49.9333C12.8951 52.2749 16.0736 53.59 19.3875 53.59C22.7015 53.59 25.88 52.2749 28.225 49.9333L37.075 41.0833C39.4166 38.7382 40.7318 35.5598 40.7318 32.2458C40.7318 28.9319 39.4166 25.7534 37.075 23.4083Z" fill="white" fill-opacity="0.6"/>
</svg>
