<svg width="60" height="60" viewBox="0 0 60 60" fill="none" xmlns="http://www.w3.org/2000/svg">
<g clip-path="url(#clip0_502_7356)">
<path d="M55.0776 32.1458C52.7701 31.0613 50.2316 30.4833 47.6331 30.4833C45.8956 30.4833 44.2173 30.7365 42.6331 31.2083V27.9833H32.6331V17.9833H27.6331V27.9833H17.6331V32.9833H27.6331V42.9833H30.8581C30.3863 44.5675 30.1331 46.2458 30.1331 47.9833C30.1331 50.5818 30.7111 53.1208 31.7956 55.4283C31.2438 55.4648 30.6896 55.4833 30.1331 55.4833C23.5026 55.4833 17.1438 52.8493 12.4556 48.1608C7.76682 43.4728 5.13257 37.114 5.13257 30.4833C5.13257 16.6763 16.3256 5.48328 30.1326 5.48328C36.7631 5.48328 43.1218 8.11728 47.8101 12.8058C52.4986 17.494 55.1326 23.8528 55.1326 30.4833C55.1326 31.0395 55.1141 31.594 55.0776 32.1458ZM38.6143 32.9833C36.1661 34.4583 34.1086 36.5158 32.6333 38.9643V32.9833H38.6143Z" fill="white" fill-opacity="0.6"/>
<path fill-rule="evenodd" clip-rule="evenodd" d="M47.6333 35.4833C50.9483 35.4833 54.1283 36.8003 56.472 39.1445C58.8163 41.4885 60.1333 44.668 60.1333 47.9833C60.1333 51.2983 58.8163 54.4783 56.472 56.822C54.1278 59.1663 50.9486 60.4833 47.6333 60.4833C44.3183 60.4833 41.1388 59.1663 38.7946 56.822C36.4503 54.4783 35.1333 51.2983 35.1333 47.9833C35.1333 41.0798 40.7298 35.4833 47.6333 35.4833ZM45.1333 52.9833L52.6333 47.9833L45.1333 42.9833V52.9833Z" fill="#3BA561"/>
</g>
<defs>
<clipPath id="clip0_502_7356">
<rect width="60" height="60" fill="white"/>
</clipPath>
</defs>
</svg>
