<svg width="60" height="60" viewBox="0 0 60 60" fill="none" xmlns="http://www.w3.org/2000/svg">
<path d="M5 4.58484C2.23858 4.58484 0 6.86879 0 9.68619V50.497C0 53.3145 2.23857 55.5983 5 55.5983H55C57.7615 55.5983 60 53.3145 60 50.497V9.68619C60 6.86879 57.7615 4.58484 55 4.58484H5ZM24.4111 28.6836V38.9679C22.2511 40.4065 19.7011 41.2023 16.8511 41.2023C10.2811 41.2023 6.65112 36.7948 6.65112 30.2752C6.65112 23.7251 10.5811 19.2869 16.9711 19.2869C19.5211 19.2869 21.6511 19.8991 23.3011 20.8479L22.6111 25.4086C21.0511 24.3985 19.2211 23.6027 17.0911 23.6027C13.5211 23.6027 11.7811 26.2962 11.7811 30.2446C11.7811 34.2237 13.5811 37.009 17.1511 37.009C18.2911 37.009 19.1011 36.7642 19.9411 36.3356V32.5709H16.0711V28.6836H24.4111ZM28.8703 19.6848H34.0002V40.8044H28.8703V19.6848ZM51.181 19.6848V24.0618H43.891V28.3775H49.651V32.7545H43.891V40.8044H38.791V19.6848H51.181Z" fill="white" fill-opacity="0.6"/>
</svg>
