<svg width="60" height="60" viewBox="0 0 60 60" fill="none" xmlns="http://www.w3.org/2000/svg">
<path d="M13.5821 52.9833C13.3954 52.9833 13.2541 52.8145 13.2867 52.6308L14.9992 42.9833H5.35625C5.16987 42.9833 5.0286 42.815 5.06072 42.6315L5.83072 38.2315C5.85585 38.088 5.9805 37.9833 6.12625 37.9833H15.8742L18.5242 22.9833H8.88125C8.69487 22.9833 8.5536 22.8151 8.58572 22.6316L9.35572 18.2316C9.38085 18.088 9.5055 17.9833 9.65125 17.9833H19.3992L21.1302 8.23085C21.1557 8.08763 21.2802 7.98328 21.4256 7.98328H25.8161C26.0029 7.98328 26.1441 8.15193 26.1116 8.3357L24.3992 17.9833H39.3992L41.1301 8.23085C41.1556 8.08763 41.2801 7.98328 41.4256 7.98328H45.8162C46.0029 7.98328 46.1441 8.15193 46.1116 8.3357L44.3991 17.9833H54.0421C54.2284 17.9833 54.3697 18.1514 54.3377 18.335L53.5676 22.735C53.5424 22.8786 53.4179 22.9833 53.2721 22.9833H43.5242L42.6231 28.0833H37.6244L38.5254 22.9833H23.5253L20.8753 37.9833H26.3991V42.9833H19.9992L18.2681 52.7358C18.2427 52.879 18.1182 52.9833 17.9727 52.9833H13.5821Z" fill="white" fill-opacity="0.6"/>
<path d="M33.6 32.8832C32.2745 32.8832 31.2 33.9577 31.2 35.2832V51.0364C31.2 52.3619 32.2745 53.4364 33.6 53.4364H36C36.3314 53.4364 36.6 53.7049 36.6 54.0364V59.1324C36.6 59.6524 37.2164 59.9264 37.6022 59.5777L43.7147 54.0554C44.1557 53.6569 44.7292 53.4364 45.3237 53.4364H56.4C57.7255 53.4364 58.7999 52.3619 58.7999 51.0364V35.2832C58.7999 33.9577 57.7255 32.8832 56.4 32.8832H33.6Z" fill="white" fill-opacity="0.6"/>
</svg>
