<svg width="60" height="60" viewBox="0 0 60 60" fill="none" xmlns="http://www.w3.org/2000/svg">
<path fill-rule="evenodd" clip-rule="evenodd" d="M30.2878 5.00162C30.192 5.00055 30.096 5 30 5C16.1925 5 5 16.1925 5 30C5 43.805 16.1925 55 30 55C43.8075 55 55 43.805 55 30C55 29.904 54.9995 29.808 54.9982 29.7122C52.9705 30.4342 50.7865 30.8273 48.5107 30.8273C37.8308 30.8273 29.1727 22.1693 29.1727 11.4891C29.1727 9.2134 29.5658 7.0295 30.2878 5.00162ZM19.8026 29.5058C19.8026 31.7768 17.9617 33.6177 15.6908 33.6177C13.4199 33.6177 11.5789 31.7768 11.5789 29.5058C11.5789 27.235 13.4199 25.394 15.6908 25.394C17.9617 25.394 19.8026 27.235 19.8026 29.5058ZM26.3042 36.2928C25.9648 34.9733 24.6196 34.179 23.3001 34.5185C21.9806 34.8582 21.1862 36.2032 21.5258 37.5228C22.5299 41.4238 26.0683 44.309 30.2868 44.309C34.5053 44.309 38.0435 41.4238 39.0477 37.5228C39.3872 36.2032 38.593 34.8582 37.2733 34.5185C35.9537 34.179 34.6087 34.9733 34.2692 36.2928C33.8125 38.0667 32.1993 39.3747 30.2868 39.3747C28.3743 39.3747 26.761 38.0667 26.3042 36.2928Z" fill="white" fill-opacity="0.6"/>
<path d="M46.25 5C44.8693 5 43.75 6.1193 43.75 7.5V11.25H40C38.6193 11.25 37.5 12.3693 37.5 13.75C37.5 15.1307 38.6193 16.25 40 16.25H43.75V20C43.75 21.3807 44.8693 22.5 46.25 22.5C47.6307 22.5 48.75 21.3807 48.75 20V16.25H52.5C53.8808 16.25 55 15.1307 55 13.75C55 12.3693 53.8808 11.25 52.5 11.25H48.75V7.5C48.75 6.1193 47.6307 5 46.25 5Z" fill="white" fill-opacity="0.6"/>
</svg>
