<svg width="60" height="60" viewBox="0 0 60 60" fill="none" xmlns="http://www.w3.org/2000/svg">
<g clip-path="url(#clip0_502_7368)">
<path fill-rule="evenodd" clip-rule="evenodd" d="M30 16.5824V0.664245H6C4.4087 0.664245 2.88258 1.29002 1.75736 2.40391C0.632141 3.5178 0 5.02856 0 6.60384L0 53.9424C0 55.5177 0.632141 57.0285 1.75736 58.1424C2.88258 59.2563 4.4087 59.882 6 59.882H54C55.5913 59.882 57.1174 59.2563 58.2426 58.1424C59.3679 57.0285 60 55.5177 60 53.9424V30.184H43.74C40.1032 30.1607 36.6221 28.7202 34.0504 26.1744C31.4788 23.6286 30.0236 20.1825 30 16.5824ZM30 46.6664C27.3505 46.6664 24.8095 45.6245 22.936 43.7699C21.0625 41.9153 20.01 39.3998 20.01 36.777H24C24 38.3523 24.6321 39.863 25.7574 40.9769C26.8826 42.0908 28.4087 42.7166 30 42.7166C31.5913 42.7166 33.1174 42.0908 34.2426 40.9769C35.3679 39.863 36 38.3523 36 36.777H39.99C39.99 39.3998 38.9375 41.9153 37.064 43.7699C35.1905 45.6245 32.6495 46.6664 30 46.6664ZM36 16.523V2.44612C35.9933 2.05779 36.1051 1.67648 36.3208 1.35203C36.5364 1.02759 36.8459 0.775086 37.2089 0.627528C37.5718 0.479971 37.9712 0.444219 38.355 0.524946C38.7388 0.605673 39.089 0.799122 39.36 1.08002L59.43 20.9183C59.7007 21.194 59.8835 21.5424 59.9557 21.9201C60.0278 22.2979 59.9862 22.6883 59.8359 23.0429C59.6856 23.3974 59.4334 23.7003 59.1105 23.914C58.7876 24.1276 58.4084 24.2425 58.02 24.2445H43.8C42.7746 24.2484 41.7585 24.0513 40.8104 23.6647C39.8622 23.278 39.0008 22.7094 38.2757 21.9916C37.5506 21.2739 36.9762 20.4211 36.5857 19.4825C36.1951 18.5439 35.996 17.5381 36 16.523ZM14.4828 39.398C14.4828 41.6603 12.6301 43.4943 10.3448 43.4943C8.05951 43.4943 6.2069 41.6603 6.2069 39.398C6.2069 37.1357 8.05951 35.3018 10.3448 35.3018C12.6301 35.3018 14.4828 37.1357 14.4828 39.398ZM49.6552 43.4943C51.9405 43.4943 53.7931 41.6603 53.7931 39.398C53.7931 37.1357 51.9405 35.3018 49.6552 35.3018C47.3699 35.3018 45.5172 37.1357 45.5172 39.398C45.5172 41.6603 47.3699 43.4943 49.6552 43.4943Z" fill="white" fill-opacity="0.6"/>
</g>
<defs>
<clipPath id="clip0_502_7368">
<rect width="60" height="60" fill="white"/>
</clipPath>
</defs>
</svg>
