<svg width="60" height="60" viewBox="0 0 60 60" fill="none" xmlns="http://www.w3.org/2000/svg">
<path fill-rule="evenodd" clip-rule="evenodd" d="M8.44652 7.1967C9.85304 5.79018 11.7607 5 13.7498 5H48.7498C50.7388 5 52.6466 5.79018 54.0531 7.1967C55.4596 8.60322 56.2498 10.5109 56.2498 12.5V47.5C56.2498 49.489 55.4596 51.3967 54.0531 52.8032C52.6466 54.2098 50.7388 55 48.7498 55H13.7498C11.7607 55 9.85304 54.2098 8.44652 52.8032C7.03999 51.3967 6.24982 49.489 6.24982 47.5V12.5C6.24982 10.5109 7.03999 8.60322 8.44652 7.1967ZM19.1331 40.7812H23.6956V19.2188H19.1331V40.7812ZM28.0748 19.2188V40.7812H35.7311C39.0018 40.7812 41.5226 39.8542 43.2936 38C45.0851 36.1458 45.9811 33.4792 45.9811 30C45.9811 26.5208 45.0851 23.8542 43.2936 22C41.5226 20.1458 39.0018 19.2188 35.7311 19.2188H28.0748ZM39.8873 35.1562C38.8663 36.1562 37.4811 36.6562 35.7311 36.6562H32.6373V23.3438H35.7311C37.4811 23.3438 38.8663 23.8438 39.8873 24.8438C40.9081 25.8438 41.4186 27.5625 41.4186 30C41.4186 32.4375 40.9081 34.1562 39.8873 35.1562Z" fill="white" fill-opacity="0.6"/>
</svg>
