<svg width="60" height="60" viewBox="0 0 60 60" fill="none" xmlns="http://www.w3.org/2000/svg">
<path d="M29.5 35.4827C28.2075 37.771 27.5283 40.3545 27.5283 42.9827C27.5283 45.6108 28.2075 48.1943 29.5 50.4827H7.5V45.4827C7.5 38.7327 20.75 35.4827 27.5 35.4827H29.5ZM27.5 30.4827C22 30.4827 17.5 25.9827 17.5 20.4827C17.5 14.9827 22 10.4827 27.5 10.4827C33 10.4827 37.5 14.9827 37.5 20.4827C37.5 25.9827 33 30.4827 27.5 30.4827ZM42.5 32.9827C48 32.9827 52.5 37.4827 52.5 42.9827C52.5 48.4827 48 52.9827 42.5 52.9827C37 52.9827 32.5 48.4827 32.5 42.9827C32.5 37.4827 37 32.9827 42.5 32.9827ZM40 48.4827L47.5 42.9827L40 37.4827V48.4827Z" fill="white" fill-opacity="0.6"/>
</svg>
