<svg width="60" height="60" viewBox="0 0 60 60" fill="none" xmlns="http://www.w3.org/2000/svg">
<path fill-rule="evenodd" clip-rule="evenodd" d="M5.00024 30C5.00024 16.1925 16.1927 5 30.0002 5C43.8077 5 55.0002 16.1925 55.0002 30C55.0002 43.805 43.8077 55 30.0002 55C16.1927 55 5.00024 43.805 5.00024 30ZM15.9377 32.1782C18.5266 32.1782 20.6252 30.0795 20.6252 27.4907C20.6252 24.9018 18.5266 22.8032 15.9377 22.8032C13.3489 22.8032 11.2502 24.9018 11.2502 27.4907C11.2502 30.0795 13.3489 32.1782 15.9377 32.1782ZM48.7502 27.4907C48.7502 30.0795 46.6515 32.1782 44.0627 32.1782C41.474 32.1782 39.3752 30.0795 39.3752 27.4907C39.3752 24.9018 41.474 22.8032 44.0627 22.8032C46.6515 22.8032 48.7502 24.9018 48.7502 27.4907ZM26.217 37.0625C25.8942 35.809 24.6165 35.0542 23.3629 35.377C22.1094 35.6995 21.3547 36.9775 21.6774 38.231C22.6312 41.937 25.9927 44.678 30.0002 44.678C34.0077 44.678 37.3692 41.937 38.323 38.231C38.6457 36.9775 37.891 35.6995 36.6375 35.377C35.384 35.0542 34.1062 35.809 33.7835 37.0625C33.3497 38.7477 31.8172 39.9905 30.0002 39.9905C28.1832 39.9905 26.6507 38.7477 26.217 37.0625Z" fill="white" fill-opacity="0.6"/>
</svg>
