<svg width="60" height="60" viewBox="0 0 60 60" fill="none" xmlns="http://www.w3.org/2000/svg">
<path fill-rule="evenodd" clip-rule="evenodd" d="M7.49512 12.4833C7.49512 9.99703 9.51112 7.98328 11.9951 7.98328H47.995C50.4812 7.98328 52.495 9.99703 52.495 12.4833V39.4833C52.495 41.9673 50.4812 43.9833 47.995 43.9833H27.745L18.7451 52.9833V43.9833H11.9951C9.51112 43.9833 7.49512 41.9673 7.49512 39.4833V12.4833ZM28.9342 13.3899C29.334 12.9927 29.9347 12.8746 30.4575 13.0885C30.9802 13.301 31.3197 13.8107 31.3197 14.3705V36.5933C31.3197 37.1558 30.9802 37.6628 30.4575 37.878C29.9347 38.092 29.334 37.974 28.9342 37.5768L22.9347 31.0375H18.7422C17.9736 31.0375 17.3447 30.4125 17.3447 29.6488V21.3151C17.3447 20.5526 17.9736 19.9262 18.7422 19.9262H22.9347L28.9342 13.3899ZM34.1147 18.5373V15.7594C39.5092 15.7594 43.8972 20.122 43.8972 25.4819C43.8972 30.8445 39.5092 35.2043 34.1147 35.2043V32.4265C37.9677 32.4265 41.1022 29.3113 41.1022 25.4819C41.1022 21.654 37.9677 18.5373 34.1147 18.5373ZM38.3072 25.4819C38.3072 23.186 36.4262 21.3151 34.1147 21.3151V24.093C34.8847 24.093 35.5122 24.7166 35.5122 25.4819C35.5122 26.2473 34.8847 26.8708 34.1147 26.8708V29.6488C36.4262 29.6488 38.3072 27.7805 38.3072 25.4819Z" fill="white" fill-opacity="0.6"/>
</svg>
