<svg width="60" height="60" viewBox="0 0 60 60" fill="none" xmlns="http://www.w3.org/2000/svg">
<path d="M27.511 54.8963C23.662 54.5298 19.7629 53.1473 16.4089 50.9598C13.6 49.1275 12.966 48.378 12.966 46.8733C12.966 43.8585 16.2866 38.573 21.96 32.5545C25.186 29.1343 29.6748 25.1258 30.1588 25.2313C31.1042 25.4423 38.652 32.8043 41.4778 36.2633C45.9498 41.7488 48.0077 46.2348 46.962 48.2338C46.1665 49.755 41.244 52.7253 37.6287 53.8635C34.6472 54.8073 30.7315 55.207 27.511 54.8963ZM9.17813 43.742C6.84758 40.1665 5.6684 36.6408 5.09548 31.5495C4.90638 29.8673 4.97313 28.9068 5.52378 25.4533C6.20793 21.1504 8.65528 16.1757 11.6032 13.111C12.8603 11.8062 12.9715 11.7729 14.5011 12.2893C16.3589 12.9167 18.339 14.2825 21.4149 17.0641L23.2115 18.6853L22.2325 19.8901C17.6771 25.4755 12.877 33.3928 11.0693 38.2898C10.0848 40.9493 9.68985 43.6255 10.1126 44.7358C10.3962 45.4853 10.1348 45.2078 9.17813 43.742ZM50.1158 44.3473C50.3438 43.2255 50.0545 41.1603 49.3705 39.0783C47.8965 34.57 42.9517 26.175 38.413 20.4731L36.9835 18.6797L38.5297 17.2584C40.5487 15.404 41.9505 14.2936 43.4632 13.3553C44.6592 12.6113 46.3612 11.9561 47.0955 11.9561C47.546 11.9561 49.1367 13.6051 50.4217 15.4096C52.413 18.1967 53.8758 21.5835 54.6155 25.1035C55.0938 27.38 55.1327 32.249 54.6935 34.5143C54.3317 36.3743 53.5643 38.7895 52.819 40.433C52.2573 41.66 50.8665 44.0418 50.2547 44.819C49.9432 45.2078 49.9433 45.2078 50.1158 44.3473ZM27.9227 11.1011C25.8257 10.0351 22.5941 8.89693 20.8086 8.58601C20.1801 8.48051 19.1177 8.41943 18.4336 8.45276C16.9596 8.52493 17.0263 8.45276 19.3903 7.33678C21.3537 6.40958 22.9945 5.86546 25.2195 5.39908C27.7225 4.87163 32.4225 4.86608 34.8865 5.38798C37.5452 5.94876 40.6768 7.11468 42.44 8.19736L42.9627 8.51938L41.7612 8.45831C39.3695 8.33616 35.8877 9.30223 32.1442 11.1233C31.0152 11.673 30.0363 12.1116 29.964 12.0949C29.8973 12.0838 28.974 11.6341 27.9227 11.1011Z" fill="white"/>
</svg>
