<svg width="60" height="60" viewBox="0 0 60 60" fill="none" xmlns="http://www.w3.org/2000/svg">
<path d="M30.0102 5.00002C42.9407 5.02237 53.7265 14.8759 54.8967 27.736C56.067 40.5957 47.2367 52.2297 34.522 54.5792C21.8072 56.929 9.39283 49.2212 5.87731 36.7947L15.5148 40.779C16.2995 44.2945 19.5907 46.6705 23.1797 46.312C26.7687 45.9537 29.5235 42.974 29.5955 39.3727V39.0602L38.138 32.967H38.3727C42.2052 32.986 45.671 30.695 47.151 27.1642C48.6307 23.6337 47.8325 19.5604 45.1292 16.8472C42.426 14.1341 38.351 13.3168 34.8082 14.777C31.2655 16.2373 28.9542 19.687 28.9542 23.5144V23.6707L22.962 32.342H22.563C21.1358 32.337 19.7421 32.7737 18.5735 33.592L5.09503 28.0455C6.07803 15.0344 16.9445 4.9835 30.0102 5.00002ZM20.7638 42.9663L17.713 41.7163C18.2483 42.9035 19.2328 43.8305 20.4509 44.2942C23.1662 45.3985 26.2647 44.1075 27.3897 41.404C27.9452 40.1067 27.9452 38.6387 27.3897 37.3417C26.2835 34.687 23.2769 33.377 20.5761 34.373L23.7912 35.701C24.7535 36.085 25.5202 36.8402 25.9177 37.796C26.3152 38.7517 26.31 39.827 25.9032 40.779C25.038 42.7667 22.7644 43.7285 20.7325 42.9663H20.7638ZM33.6477 23.5144C33.6475 24.7726 34.1537 25.978 35.0527 26.8595C35.9517 27.741 37.1677 28.2247 38.4275 28.2015C41.0337 28.202 43.16 26.117 43.207 23.5144C43.207 20.8783 41.067 18.7413 38.4275 18.7413C35.7877 18.7413 33.6477 20.8783 33.6477 23.5144ZM44.5995 23.5925C44.6375 26.167 43.1135 28.5092 40.7422 29.5202C38.371 30.5312 35.623 30.0105 33.7875 28.2022C31.9517 26.394 31.393 23.6571 32.3727 21.2755C33.3527 18.8939 35.677 17.3401 38.2552 17.3429C39.9342 17.3048 41.557 17.9482 42.7527 19.126C43.9485 20.3038 44.6147 21.9154 44.5995 23.5925Z" fill="white"/>
</svg>
