<svg width="60" height="60" viewBox="0 0 60 60" fill="none" xmlns="http://www.w3.org/2000/svg">
<path d="M30 55C43.8071 55 55 43.8071 55 30C55 16.1929 43.8071 5 30 5C16.1929 5 5 16.1929 5 30C5 43.8071 16.1929 55 30 55Z" fill="#1877F2"/>
<path d="M38.6895 37.33L39.726 30.1458H33.242V25.4855C33.242 23.5199 34.148 21.602 37.052 21.602H40V15.4854C40 15.4854 37.3247 15 34.7668 15C29.4265 15 25.936 18.4408 25.936 24.6699V30.1458H20V37.33H25.936V54.698C28.3568 55.1008 30.8215 55.1008 33.242 54.698V37.33H38.6895Z" fill="white"/>
</svg>
