<svg width="60" height="60" viewBox="0 0 60 60" fill="none" xmlns="http://www.w3.org/2000/svg">
<path fill-rule="evenodd" clip-rule="evenodd" d="M59.1718 42.8885C58.0116 44.3525 55.1688 45.3968 55.1688 45.3968L34.0213 52.9928V47.3908L49.5843 41.8458C51.3506 41.2128 51.6216 40.3183 50.1861 39.8488C48.7533 39.378 46.1588 39.513 44.3913 40.1483L34.0213 43.8008V37.987L34.6191 37.7845C34.6191 37.7845 37.6156 36.724 41.8293 36.2573C46.0428 35.7933 51.2021 36.3208 55.2523 37.856C59.8168 39.2983 60.3308 41.4248 59.1718 42.8885ZM36.0343 33.3498V19.024C36.0343 17.3416 35.7241 15.7927 34.1456 15.3542C32.9366 14.967 32.1866 16.0895 32.1866 17.7706V53.6458L22.5114 50.5751V7.80005C26.6251 8.56367 32.6183 10.3689 35.8401 11.455C44.0338 14.2681 46.8118 17.7692 46.8118 25.658C46.8118 33.347 42.0653 36.2613 36.0343 33.3498ZM4.75866 46.8053C0.072886 45.4858 -0.70695 42.736 1.42883 41.1523C3.40271 39.6895 6.75951 38.5888 6.75951 38.5888L20.632 33.656V39.2795L10.6492 42.8523C8.88583 43.4851 8.61466 44.3808 10.0475 44.8503C11.4817 45.3198 14.0776 45.1863 15.8437 44.5523L20.632 42.8143V47.8456C20.3284 47.8996 19.9897 47.9535 19.6767 48.0061C14.8871 48.7886 9.78576 48.462 4.75866 46.8053Z" fill="white"/>
</svg>
