<svg width="60" height="60" viewBox="0 0 60 60" fill="none" xmlns="http://www.w3.org/2000/svg">
<path d="M20.5443 50.744C39.495 50.744 49.8317 35.0822 49.8317 21.4565V20.1253C51.8405 18.6523 53.5875 16.8522 55 14.8003C53.1418 15.6559 51.1592 16.2109 49.1267 16.4448C51.2847 15.1541 52.8993 13.1221 53.6688 10.7282C51.6495 11.9046 49.4555 12.7505 47.1693 13.2341C43.2633 9.11227 36.7673 8.90272 32.6038 12.7643C29.9253 15.2555 28.7892 18.9923 29.628 22.5528C21.3649 22.1443 13.6644 18.2442 8.44558 11.8246C5.70238 16.5197 7.11297 22.5405 11.6562 25.5285C10.0165 25.4645 8.4116 25.0365 6.95773 24.2756V24.4322C6.95643 29.3232 10.3907 33.5425 15.1801 34.534C13.6721 34.9377 12.0918 34.9912 10.5599 34.6907C11.9119 38.8845 15.7859 41.7507 20.1919 41.8167C16.5594 44.6872 12.0572 46.234 7.42758 46.202C6.64447 46.202 5.78308 46.1237 5 46.0455C9.61083 49.1282 15.037 50.7642 20.5834 50.744" fill="#1DA1F2"/>
</svg>
