<svg width="60" height="60" viewBox="0 0 60 60" fill="none" xmlns="http://www.w3.org/2000/svg">
<path d="M30 5C16.1929 5 5 16.1929 5 30C5 43.807 16.1929 55 30 55C43.807 55 55 43.807 55 30C55 23.3696 52.366 17.0107 47.6777 12.3223C42.9893 7.63392 36.6305 5 30 5ZM41.4062 41.0938C40.9478 41.7902 40.0362 42.0268 39.297 41.6405C33.4375 38.047 26.0155 37.2655 17.3438 39.2188C16.7995 39.3442 16.2296 39.17 15.8486 38.7615C15.4677 38.353 15.3337 37.7722 15.4971 37.238C15.6604 36.704 16.0963 36.2975 16.6406 36.172C26.172 33.9845 34.297 34.922 40.9375 38.9845C41.2873 39.1952 41.5352 39.54 41.6237 39.9388C41.7125 40.3372 41.6338 40.7547 41.4062 41.0938ZM44.5312 34.2188C44.2632 34.6555 43.832 34.9672 43.3332 35.0845C42.8345 35.2017 42.3095 35.1152 41.875 34.8438C35.1562 30.703 24.9219 29.5312 16.9531 31.953C16.2832 32.1485 15.56 31.9718 15.0559 31.4893C14.5517 31.0068 14.3433 30.292 14.509 29.6143C14.6747 28.9365 15.1895 28.3985 15.8594 28.203C24.9219 25.4688 36.25 26.797 43.9062 31.5625C44.7835 32.1437 45.0573 33.3073 44.5312 34.2188ZM44.7655 27.1875C36.7188 22.4219 23.4375 21.9531 15.7031 24.2969C14.5423 24.4821 13.4238 23.7787 13.0878 22.6522C12.7518 21.5258 13.3023 20.3246 14.375 19.8438C23.2031 17.1875 37.8905 17.6562 47.1875 23.2031C47.7233 23.5177 48.1085 24.0359 48.2557 24.6394C48.403 25.243 48.2995 25.8802 47.9688 26.4062C47.2635 27.4555 45.8748 27.7943 44.7655 27.1875Z" fill="#1ED760"/>
</svg>
