<svg width="60" height="60" viewBox="0 0 60 60" fill="none" xmlns="http://www.w3.org/2000/svg">
<path d="M47.35 19.758C39.76 16.248 28.84 14.018 18.57 14.848C19.08 11.448 20.36 9.07803 22.44 8.57803C25.31 7.88803 28.44 9.77802 31.42 13.208C33.37 13.458 35.69 13.908 37.31 14.278C31.87 4.04803 24.57 -1.68197 19.02 0.438028C14.8 2.04803 12.64 7.85802 12.9 15.668C7.4 16.838 3.10998 18.918 0.359984 21.908C0.219985 22.068 -0.090016 22.478 0.0199842 22.668C0.109984 22.818 0.379984 22.648 0.509984 22.568C3.68998 20.338 7.77 19.138 13.08 18.378C13.84 26.708 17.36 37.278 23.22 45.758C20.02 47.018 17.33 47.098 15.86 45.538C13.83 43.398 13.9 39.738 15.38 35.438C14.62 33.618 13.85 31.388 13.37 29.808C7.21 39.638 5.88998 48.828 10.5 52.578C14.01 55.428 20.12 54.398 26.75 50.268C30.51 54.448 34.46 57.118 38.42 57.998C38.63 58.038 39.14 58.108 39.25 57.918C39.34 57.768 39.05 57.608 38.92 57.548C35.4 55.908 32.32 52.978 29.01 48.758C35.85 43.938 43.24 35.598 47.65 26.288C50.34 28.438 51.75 30.718 51.14 32.778C50.3 35.608 47.1 37.378 42.63 38.238C41.43 39.808 39.89 41.588 38.76 42.798C50.34 43.198 58.96 39.748 59.9 33.888C60.62 29.428 56.66 24.648 49.77 20.968C51.51 15.618 51.85 10.868 50.63 6.99803C50.56 6.79803 50.37 6.31803 50.14 6.31803C49.97 6.31803 49.97 6.64803 49.98 6.78803C50.34 10.648 49.35 14.788 47.35 19.758ZM26.02 44.428C21.12 36.568 18.3 27.308 18.31 17.948C27.57 17.638 37 19.818 45.1 24.518C40.74 32.688 34.14 39.768 26.02 44.428Z" fill="#3F8FF7"/>
</svg>
