<svg width="60" height="60" viewBox="0 0 60 60" fill="none" xmlns="http://www.w3.org/2000/svg">
<path d="M46.6405 30.2343C46.5683 28.2313 44.894 26.6616 42.8905 26.7186C41.9868 26.7521 41.1258 27.1131 40.4685 27.7343C37.6335 25.7986 34.2918 24.7389 30.8593 24.6873L32.4998 16.8748L37.8123 17.9686C37.9363 19.1949 38.9355 20.1478 40.1663 20.2136C41.397 20.2794 42.492 19.4383 42.746 18.2322C43 17.0261 42.337 15.8149 41.184 15.3788C40.0312 14.9428 38.7328 15.412 38.1248 16.4842L32.031 15.2342C31.8235 15.1884 31.606 15.2291 31.4293 15.347C31.2523 15.465 31.131 15.6499 31.0935 15.8592L29.2185 24.5311C25.7375 24.5822 22.3456 25.6406 19.4529 27.5781C18.5095 26.6533 17.1398 26.3108 15.8722 26.6828C14.6046 27.0546 13.6371 28.0828 13.3426 29.3706C13.0482 30.6583 13.4729 32.0048 14.4529 32.8906C14.7618 33.1436 15.1034 33.3538 15.4686 33.5156V34.6093C15.4686 40.2343 22.0311 44.7656 30.078 44.7656C38.1248 44.7656 44.6873 40.2343 44.6873 34.6093V33.5156C45.893 32.8651 46.6435 31.6043 46.6405 30.2343Z" fill="white"/>
<path d="M30 5C43.807 5 55 16.1929 55 30C55 43.807 43.807 55 30 55C16.1929 55 5 43.807 5 30C5 16.1929 16.1929 5 30 5ZM46.6405 30.2343C46.5683 28.2313 44.894 26.6616 42.8905 26.7186C41.9868 26.7521 41.1258 27.1131 40.4685 27.7343C37.6335 25.7986 34.2918 24.7389 30.8593 24.6873L32.4998 16.8748L37.8123 17.9686C37.9363 19.1949 38.9355 20.1478 40.1663 20.2136C41.397 20.2794 42.492 19.4383 42.746 18.2322C43 17.0261 42.337 15.8149 41.184 15.3788C40.0312 14.9428 38.7328 15.412 38.1248 16.4842L32.031 15.2342C31.8235 15.1884 31.606 15.2291 31.4293 15.347C31.2523 15.465 31.131 15.6499 31.0935 15.8592L29.2185 24.5311C25.7375 24.5822 22.3456 25.6406 19.4529 27.5781C18.5095 26.6533 17.1398 26.3108 15.8722 26.6828C14.6046 27.0546 13.6371 28.0828 13.3426 29.3706C13.0482 30.6583 13.4729 32.0048 14.4529 32.8906C14.7618 33.1436 15.1034 33.3538 15.4686 33.5156V34.6093C15.4686 40.2343 22.0311 44.7656 30.078 44.7656C38.1248 44.7656 44.6873 40.2343 44.6873 34.6093V33.5156C45.893 32.8651 46.6435 31.6043 46.6405 30.2343ZM21.6406 32.7343C21.6406 31.3538 22.7599 30.2345 24.1406 30.2345C25.5212 30.2345 26.6405 31.3538 26.6405 32.7343C26.6405 34.115 25.5212 35.2343 24.1406 35.2343C23.475 35.2428 22.8342 34.9823 22.3635 34.5115C21.8928 34.0407 21.6322 33.4 21.6406 32.7343ZM36.172 39.6875C34.395 41.0037 32.2057 41.641 30 41.4843C27.7815 41.5473 25.6068 40.859 23.8281 39.5312C23.6141 39.2438 23.6476 38.842 23.9062 38.5938C24.1439 38.3573 24.5279 38.3573 24.7656 38.5938C26.2838 39.691 28.1287 40.2417 30 40.1562C31.857 40.2205 33.6875 39.7015 35.2345 38.6718C35.5267 38.4218 35.9578 38.4218 36.25 38.6718C36.5625 38.9063 36.4062 39.453 36.172 39.6875ZM33.203 32.7343C33.203 31.3538 34.3225 30.2345 35.703 30.2345C37.0838 30.2345 38.2032 31.3538 38.2032 32.7343C38.2032 34.115 37.0838 35.2343 35.703 35.2343C35.0375 35.2428 34.3968 34.9823 33.926 34.5115C33.4552 34.0407 33.1948 33.4 33.203 32.7343Z" fill="#FF4500"/>
</svg>
