<svg width="60" height="60" viewBox="0 0 60 60" fill="none" xmlns="http://www.w3.org/2000/svg">
<path d="M53.8824 30.1177C53.8824 16.9928 43.2427 6.35303 30.1177 6.35303C16.9928 6.35303 6.35303 16.9928 6.35303 30.1177C6.35303 43.2427 16.9928 53.8824 30.1177 53.8824C43.2427 53.8824 53.8824 43.2427 53.8824 30.1177Z" fill="white"/>
<path d="M15.9879 25.7584C13.2993 25.7584 11.0589 26.9125 11.0589 30.3955C11.0589 33.1548 12.5654 34.8925 16.0572 34.8925C20.1672 34.8925 20.4307 32.152 20.4307 32.152H18.4392C18.4392 32.152 18.0123 33.6275 15.9358 33.6275C14.2445 33.6275 13.0281 32.4711 13.0281 30.8506H20.6391V29.8334C20.6391 28.2301 19.6334 25.7584 15.9879 25.7584ZM15.9183 27.0581C17.5282 27.0581 18.6257 28.0565 18.6257 29.5525H13.0721C13.0721 27.9642 14.5048 27.0581 15.9183 27.0581Z" fill="#E53238"/>
<path d="M20.6376 22.3856V33.1433C20.6376 33.7539 20.5945 34.6113 20.5945 34.6113H22.4939C22.4939 34.6113 22.5621 33.9956 22.5621 33.4327C22.5621 33.4327 23.5006 34.9189 26.0523 34.9189C28.7394 34.9189 30.5648 33.0304 30.5648 30.3252C30.5648 27.8085 28.8883 25.7845 26.0568 25.7845C23.4052 25.7845 22.5813 27.2337 22.5813 27.2337V22.3856H20.6376ZM25.5664 27.1151C27.3911 27.1151 28.5516 28.4859 28.5516 30.3252C28.5516 32.2979 27.2114 33.588 25.5796 33.588C23.6319 33.588 22.5813 32.049 22.5813 30.3429C22.5813 28.7532 23.524 27.1151 25.5664 27.1151Z" fill="#0064D2"/>
<path d="M35.2855 25.7584C31.241 25.7584 30.9815 27.9998 30.9815 28.3579H32.9947C32.9947 28.3579 33.1003 27.0492 35.1467 27.0492C36.4766 27.0492 37.5069 27.6654 37.5069 28.8499V29.2713H35.1467C32.0133 29.2713 30.3568 30.1993 30.3568 32.0819C30.3568 33.9348 31.8874 34.9428 33.9558 34.9428C36.7749 34.9428 37.6829 33.3664 37.6829 33.3664C37.6829 33.9937 37.7304 34.6113 37.7304 34.6113H39.5201C39.5201 34.6113 39.4509 33.8457 39.4509 33.3555V29.1198C39.4509 26.3426 37.2377 25.7584 35.2855 25.7584ZM37.5069 30.5362V31.0981C37.5069 31.8313 37.0601 33.6541 34.4286 33.6541C32.9876 33.6541 32.37 32.9261 32.37 32.0819C32.37 30.5461 34.4504 30.5362 37.5069 30.5362Z" fill="#F5AF02"/>
<path d="M38.3667 26.1099H40.6316L43.882 32.7007L47.1248 26.1099H49.1766L43.2697 37.8438H41.1175L42.822 34.573L38.3667 26.1099Z" fill="#86B817"/>
</svg>
