<svg width="60" height="60" viewBox="0 0 60 60" fill="none" xmlns="http://www.w3.org/2000/svg">
<path d="M4 30.1177C4 44.4121 15.5879 56.0001 29.8824 56.0001C44.1767 56.0001 55.7647 44.4121 55.7647 30.1177C55.7647 15.8233 44.1767 4.23535 29.8824 4.23535C15.5879 4.23535 4 15.8233 4 30.1177Z" fill="white"/>
<path d="M43.7242 21.9581V20.5984C42.1661 20.5999 40.6414 20.1465 39.3372 19.2939C40.4621 20.5863 41.9901 21.5871 43.7242 21.9581Z" fill="#25F4EE"/>
<path d="M39.3372 19.2939C38.0574 17.8321 37.3522 15.9552 37.3529 14.0123H35.7784C35.9845 15.0873 36.4059 16.1094 37.0176 17.0171C37.6292 17.9248 38.4184 18.6993 39.3372 19.2939Z" fill="#FE2C55"/>
<path d="M26.4471 26.4169V25.0122C25.9711 24.9451 25.4911 24.9103 25.0106 24.908C22.185 24.9113 19.4762 26.0353 17.4783 28.0331C15.4804 30.031 14.3564 32.74 14.353 35.5654C14.3536 37.2788 14.7675 38.9665 15.5596 40.4858C16.3518 42.0049 17.4987 43.3108 18.9031 44.292C17.0738 42.32 16.0639 39.7254 16.0785 37.0355C16.076 34.2616 17.1597 31.5969 19.0977 29.6122C21.0356 27.6275 23.6736 26.4804 26.4471 26.4169Z" fill="#25F4EE"/>
<path d="M26.6981 41.9323C29.3207 41.9323 31.4896 39.8167 31.5873 37.2182L31.608 14.0458H35.8094L35.8035 14.0104C35.7127 13.5268 35.6668 13.0358 35.6664 12.5438H29.8824L29.8729 35.7516C29.8249 37.0088 29.2925 38.1984 28.3868 39.0716C27.4812 39.9448 26.2727 40.4335 25.0148 40.4353C24.228 40.4358 23.4528 40.2438 22.757 39.8763C23.6379 41.0998 25.0744 41.9323 26.6981 41.9323Z" fill="#25F4EE"/>
<path d="M25.0104 30.6537C22.3264 30.6537 20.1109 32.8822 20.1109 35.5652C20.1109 37.4349 21.2032 39.0584 22.7527 39.8737C22.1537 39.0485 21.8312 38.0551 21.8312 37.0354C21.8326 35.745 22.3458 34.5078 23.2581 33.5954C24.1706 32.6827 25.4075 32.1695 26.6979 32.1678C27.1854 32.169 27.6699 32.2448 28.1344 32.393V26.4815C27.6586 26.4142 27.1786 26.3794 26.6979 26.377C26.6118 26.377 26.5306 26.3812 26.4468 26.3838H26.4245L26.4089 30.8582C25.9562 30.7175 25.4845 30.6483 25.0104 30.6537Z" fill="#FE2C55"/>
<path d="M43.7242 21.8891L43.6967 21.884V26.3548C40.8005 26.3477 37.9795 25.4308 35.6327 23.7336V35.5628C35.6351 36.9588 35.3621 38.3416 34.8292 39.6319C34.2965 40.9223 33.5144 42.0948 32.5275 43.0823C31.5407 44.0698 30.3689 44.8531 29.0791 45.387C27.7892 45.9209 26.4066 46.195 25.0106 46.1936C22.8276 46.2065 20.6942 45.5435 18.9031 44.2955C19.8983 45.3684 21.1043 46.2242 22.4456 46.8094C23.7868 47.3948 25.2346 47.6967 26.6981 47.6964C29.5242 47.6931 32.2339 46.5689 34.232 44.5703C36.2301 42.5715 37.3539 39.8618 37.3565 37.0355V25.2677C39.7033 26.9548 42.5214 27.8602 45.4118 27.8559V22.0686C44.8445 22.0684 44.2788 22.0082 43.7242 21.8891Z" fill="#FE2C55"/>
<path d="M35.668 35.5654V23.7983C38.0153 25.4854 40.8336 26.3908 43.7242 26.3865V21.8866C42.0198 21.5187 40.4805 20.6081 39.3372 19.2914C38.4216 18.696 37.6365 17.9208 37.0294 17.0129C36.4221 16.105 36.0056 15.0833 35.8052 14.0097H31.5656L31.5562 37.2176C31.5085 38.4748 30.976 39.6646 30.0704 40.5378C29.1645 41.411 27.956 41.8997 26.6981 41.9014C25.9266 41.9006 25.1666 41.7162 24.4805 41.3635C23.7944 41.0108 23.2022 40.5005 22.7527 39.8737C21.9662 39.4617 21.3073 38.8418 20.8473 38.0825C20.3874 37.323 20.1438 36.4524 20.1429 35.5644C20.1445 34.2741 20.6579 33.0371 21.5704 32.1246C22.4829 31.2124 23.72 30.6992 25.0106 30.6978C25.4979 30.699 25.9824 30.7748 26.4471 30.9221L26.4468 26.3838C20.6862 26.5191 16.0405 31.2395 16.0405 37.0355C16.0392 39.7301 17.0626 42.3242 18.9031 44.292C20.6909 45.5505 22.8242 46.2251 25.0106 46.2237C27.8362 46.2204 30.5452 45.0966 32.5433 43.0983C34.5412 41.1002 35.6649 38.391 35.668 35.5654Z" fill="black"/>
</svg>
