<svg width="60" height="60" viewBox="0 0 60 60" fill="none" xmlns="http://www.w3.org/2000/svg">
<path fill-rule="evenodd" clip-rule="evenodd" d="M44.2691 8.54907H13.8466C11.3807 8.54907 10.4707 9.45912 10.4707 11.9261V41.6942C10.4707 41.9735 10.4819 42.2328 10.5066 42.473C10.5628 43.0116 10.5733 43.5332 11.0741 44.1274C11.1231 44.1857 11.6344 44.5662 11.6344 44.5662C11.9094 44.701 12.0972 44.8003 12.4074 44.9252L27.3879 51.2015C28.1655 51.5579 28.4907 51.697 29.0556 51.6857H29.0599C29.6248 51.697 29.95 51.5579 30.7279 51.2015L45.7081 44.9252C46.0185 44.8003 46.2062 44.701 46.4813 44.5662C46.4813 44.5662 46.9926 44.1857 47.0413 44.1274C47.5422 43.5332 47.5528 43.0116 47.6088 42.473C47.6335 42.2328 47.6448 41.9735 47.6448 41.6942V11.9261C47.6448 9.45912 46.7347 8.54907 44.2691 8.54907Z" fill="white"/>
<path d="M42.2309 38.477L42.2241 38.5457L42.2173 38.6213L42.2034 38.69L42.1829 38.7584L42.1695 38.8203L42.1491 38.889L42.1215 38.9509L42.094 39.0057L42.0669 39.0676L42.0326 39.1224L41.9985 39.1775L41.9575 39.2323L41.9232 39.2874L41.8825 39.3354L41.8342 39.3834L41.7935 39.4246L41.7387 39.4728L41.6909 39.514L41.6361 39.5552L41.5815 39.589L41.5269 39.6302L41.4653 39.6646L41.4036 39.6921L41.3425 39.7262L41.2738 39.7537L41.2055 39.7813L41.1373 39.8017L41.0691 39.8224L41.0072 39.8432L40.9389 39.8568L40.8775 39.8704L40.8161 39.8843L40.7474 39.898L40.6792 39.9048L40.6178 39.9116L40.5491 39.9187L40.474 39.9255L40.4058 39.9323H40.1187L40.0502 39.9255H39.9752L39.9069 39.9187L39.8382 39.9116L39.7632 39.9048L39.6949 39.8912L39.6267 39.8843L39.558 39.8704L39.4215 39.8432L39.3531 39.8293L39.2846 39.8088L39.2232 39.7949L39.1549 39.7744L39.0865 39.7537L39.0248 39.7262L38.9566 39.7057L38.8952 39.6853L38.8269 39.6577L38.7651 39.6302L38.7036 39.6027L38.6422 39.5688L38.5806 39.5413L38.5192 39.5069L38.4646 39.4728L38.4027 39.4384L38.3484 39.4041L38.2933 39.3697L38.2387 39.3286L38.1844 39.2874L38.1293 39.2462L38.0747 39.2048L38.0267 39.1636L37.9721 39.1156L38.0133 39.0608L38.0611 39.0126L38.1022 38.9577L38.15 38.9027L38.1912 38.8547L38.2319 38.7999L38.2801 38.7448L38.3208 38.6968L38.3688 38.642L38.4098 38.5937L38.4578 38.5389L38.4985 38.4839L38.5396 38.4359L38.5874 38.381L38.6286 38.326L38.6761 38.278L38.7173 38.2232L38.7719 38.2643L38.8333 38.3055L38.8884 38.3467L38.9498 38.3879L39.0046 38.4222L39.066 38.4634L39.1206 38.4977L39.1825 38.525L39.2368 38.5594L39.2982 38.5869L39.3601 38.6144L39.4215 38.642L39.4829 38.6624L39.5446 38.69L39.6128 38.7104L39.6813 38.7312L39.7425 38.7516L39.8112 38.7655L39.8794 38.7792L39.9476 38.793L40.0229 38.7999L40.0914 38.8135H40.1599L40.2349 38.8203H40.3851L40.4604 38.8135L40.5291 38.7999L40.5902 38.786L40.6516 38.7723L40.7067 38.7516L40.7545 38.7243L40.8093 38.6832L40.85 38.6349L40.8775 38.5801L40.8982 38.5182L40.9048 38.4495V38.4359L40.8982 38.3535L40.8707 38.2848L40.8364 38.2368L40.7886 38.1956L40.7338 38.1544L40.6792 38.1269L40.6178 38.0994L40.5491 38.0719L40.4672 38.0377L40.4194 38.0239L40.3651 38.0102L40.3032 37.9895L40.2418 37.9759L40.1735 37.9552L40.1048 37.9415L40.0298 37.9208L39.9615 37.9072L39.8862 37.8867L39.818 37.8728L39.7493 37.8523L39.6813 37.8384L39.6128 37.818L39.5512 37.7973L39.4829 37.7836L39.4215 37.7629L39.3601 37.7424L39.2982 37.7217L39.2232 37.6942L39.1549 37.6667L39.0865 37.6394L39.018 37.6119L38.9566 37.5775L38.8884 37.5432L38.8333 37.509L38.7719 37.4747L38.7173 37.4335L38.6625 37.3992L38.6149 37.3577L38.5669 37.3097L38.5192 37.2617L38.4371 37.1655L38.4027 37.1175L38.3688 37.0624L38.3345 37.0008L38.3069 36.9533L38.2865 36.8982L38.2662 36.8363L38.2458 36.7815L38.2319 36.7128L38.2182 36.6509L38.2046 36.5137L38.1975 36.4382V36.2801L38.2046 36.2116L38.2114 36.1497L38.2182 36.081L38.2319 36.0194L38.2458 35.9575L38.2662 35.8956L38.2801 35.834L38.3069 35.7721L38.3345 35.7102L38.362 35.6486L38.3959 35.5867L38.4302 35.525L38.4709 35.47L38.5124 35.4152L38.5599 35.3601L38.6079 35.3121L38.6556 35.257L38.7107 35.209L38.7582 35.1747L38.8131 35.1335L38.8676 35.0923L38.9222 35.058L38.9841 35.0236L39.0455 34.9961L39.1067 34.962L39.1686 34.9344L39.2368 34.9137L39.3051 34.8864L39.3669 34.8657L39.4215 34.8521L39.4829 34.8382L39.5446 34.8246L39.6128 34.8109L39.6742 34.797L39.9476 34.7697H40.2418L40.3921 34.7834H40.4604L40.5359 34.7902L40.6041 34.8039L40.6792 34.8109L40.7474 34.8246L40.8093 34.8382L40.8775 34.8521L40.9458 34.8657L41.0072 34.8794L41.0759 34.9001L41.1373 34.9206L41.1987 34.9344L41.2672 34.962L41.3286 34.9824L41.4514 35.0375L41.5201 35.0648L41.5815 35.0992L41.6361 35.1267L41.6978 35.161L41.7592 35.1954L41.8138 35.2297L41.8756 35.2709L41.9302 35.3053L41.9851 35.3464L42.0396 35.3876L42.094 35.4288L42.0533 35.4839L42.0189 35.5387L41.9782 35.5935L41.9371 35.6486L41.8961 35.7102L41.8618 35.7653L41.8206 35.8203L41.7799 35.8752L41.7455 35.93L41.7046 35.985L41.6636 36.0399L41.6291 36.0949L41.5884 36.1566L41.5472 36.2116L41.5065 36.2664L41.4721 36.3215L41.4312 36.3763L41.3764 36.3352L41.3149 36.3008L41.2604 36.2664L41.2055 36.2253L41.1441 36.198L41.0891 36.1634L41.0279 36.1361L40.9733 36.1086L40.9114 36.081L40.8568 36.0537L40.7956 36.033L40.7406 36.0055L40.6655 35.985L40.5973 35.9643L40.5291 35.9439L40.4604 35.93L40.3921 35.9163L40.3239 35.9024L40.1869 35.8888L40.1255 35.882H39.9752L39.9001 35.8956L39.8314 35.9095L39.77 35.9232L39.7154 35.9507L39.6674 35.978L39.606 36.033L39.5648 36.0949L39.5378 36.1566L39.5309 36.2253V36.2392L39.5378 36.3283L39.5716 36.4039L39.5992 36.445L39.6467 36.493L39.7086 36.5274L39.7632 36.5617L39.8314 36.5893L39.9069 36.6168L39.9888 36.6441L40.0434 36.658L40.098 36.6784L40.1599 36.6921L40.2211 36.7128L40.2893 36.7267L40.3651 36.7472L40.4401 36.7676L40.5152 36.7883L40.5902 36.802L40.6585 36.8227L40.7338 36.8434L40.8025 36.857L40.8707 36.8775L40.9389 36.8982L41.0004 36.9189L41.0691 36.9394L41.1305 36.9601L41.1916 36.9806L41.2672 37.0076L41.3354 37.042L41.4036 37.0695L41.4721 37.1039L41.534 37.1382L41.5954 37.1726L41.6498 37.2067L41.7046 37.2481L41.7592 37.2822L41.8138 37.3304L41.8688 37.3784L41.9164 37.4335L41.9644 37.4815L42.0053 37.5363L42.0465 37.5982L42.0804 37.653L42.1147 37.7149L42.1422 37.77L42.1627 37.8316L42.1829 37.8935L42.1966 37.9552L42.2105 38.0239L42.2241 38.0926L42.2309 38.1613L42.238 38.2368V38.4015L42.2309 38.477ZM33.5201 39.85V34.8521H37.4709V35.985H34.8253V36.802H37.2044V37.866H34.8253V38.7173H37.5053V39.85H33.5201ZM31.1914 39.85V36.8944L31.1573 36.9495L31.1164 37.0116L31.082 37.0667L31.0413 37.1215L31.0069 37.1834L30.9655 37.2384L30.9319 37.2933L30.8973 37.3554L30.8566 37.4104L30.8222 37.4653L30.7811 37.5203L30.7472 37.5824L30.706 37.6373L30.6721 37.6923L30.6378 37.754L30.5966 37.8093L30.5625 37.8643L30.5213 37.9262L30.4874 37.981L30.4462 38.0361L30.4124 38.0982L30.378 38.1533L30.3368 38.2081L30.3029 38.27L30.2618 38.3253L30.2279 38.3801L30.1865 38.4352L30.1521 38.4968L30.1182 38.5521L30.0771 38.6072L30.0432 38.669L30.002 38.7239L29.9676 38.7787L29.9269 38.841L29.8926 38.8959H29.8655L29.8244 38.8342L29.79 38.7787L29.7491 38.717L29.7147 38.662L29.674 38.6003L29.6396 38.545L29.5989 38.4832L29.5646 38.4281L29.5234 38.3664L29.4893 38.3114L29.4481 38.2493L29.4142 38.1942L29.3731 38.1326L29.3387 38.0775L29.298 38.0154L29.2636 37.9606L29.2229 37.8987L29.1818 37.8439L29.1474 37.7815L29.1065 37.7267L29.0721 37.6648L29.0314 37.61L28.9971 37.5476L28.9564 37.4928L28.922 37.4309L28.8808 37.3761L28.8467 37.3142L28.8055 37.2589L28.7716 37.197L28.7305 37.1422L28.6961 37.0803L28.6554 37.0255L28.6211 36.9632L28.5801 36.9083V39.85H27.2813V34.8521H28.6829L28.7168 34.9069L28.7512 34.9688L28.7919 35.0232L28.8262 35.085L28.8606 35.1399L28.8945 35.2017L28.9288 35.2563L28.9698 35.3182L29.0039 35.373L29.0382 35.4281L29.0721 35.4893L29.1065 35.5443L29.1474 35.606L29.1818 35.661L29.2159 35.7224L29.25 35.7773L29.2912 35.8323L29.3255 35.8937L29.3594 35.9486L29.3938 36.0104L29.4276 36.0653L29.4688 36.1267L29.5032 36.1817L29.5371 36.2434L29.5714 36.298L29.6053 36.3528L29.6465 36.4147L29.6808 36.4697L29.7147 36.5314L29.7491 36.586L29.7829 36.6479L29.8244 36.7027L29.8587 36.7641L29.8926 36.8192L29.9269 36.7641L29.9613 36.7027L30.002 36.6479L30.0364 36.586L30.0702 36.5314L30.1046 36.4697L30.1453 36.4147L30.1796 36.3528L30.214 36.298L30.2479 36.2434L30.2891 36.1817L30.3232 36.1267L30.3575 36.0653L30.3916 36.0104L30.4326 35.9486L30.4667 35.8937L30.5013 35.8323L30.5352 35.7773L30.5695 35.7224L30.6102 35.661L30.6446 35.606L30.6789 35.5443L30.7128 35.4893L30.754 35.4281L30.7881 35.373L30.8222 35.3182L30.8566 35.2563L30.8973 35.2017L30.9319 35.1399L30.9655 35.085L31.0001 35.0232L31.0413 34.9688L31.0752 34.9069L31.1095 34.8521H32.5107V39.85H31.1914ZM24.5109 37.7904L24.4902 37.7283L24.4632 37.6596L24.4359 37.5977L24.4152 37.5356L24.3881 37.4737L24.3608 37.405L24.3401 37.3429L24.3126 37.281L24.2855 37.2194L24.2648 37.157L24.2373 37.0886L24.2173 37.0267L24.1898 36.9646L24.1622 36.9027L24.1418 36.8408L24.1147 36.7719L24.0872 36.71L24.0667 36.6483L24.0392 36.586L24.0121 36.5173L23.9914 36.4552L23.9639 36.3933L23.9371 36.4552L23.9164 36.5173L23.8888 36.586L23.8615 36.6483L23.8413 36.71L23.8138 36.7719L23.7862 36.8408L23.7592 36.9027L23.7385 36.9646L23.7112 37.0267L23.6836 37.0886L23.6634 37.157L23.6361 37.2194L23.6086 37.281L23.5881 37.3429L23.5608 37.405L23.5333 37.4737L23.506 37.5356L23.4858 37.5977L23.4584 37.6596L23.4308 37.7283L23.4103 37.7904L23.3832 37.8523H24.5382L24.5109 37.7904ZM25.3175 39.85L25.2905 39.7881L25.2698 39.7262L25.2425 39.6646L25.2149 39.5959L25.1947 39.5344L25.1672 39.4728L25.1399 39.4109L25.1196 39.349L25.0921 39.2874L25.0646 39.2255L25.0441 39.1636L25.0171 39.0952L24.9895 39.0333L24.9688 38.9714L24.9415 38.9097H22.9797L22.9526 38.9714L22.932 39.0333L22.9045 39.0952L22.8771 39.1636L22.8569 39.2255L22.8295 39.2874L22.802 39.349L22.7814 39.4109L22.7544 39.4728L22.7268 39.5344L22.7063 39.5959L22.6791 39.6646L22.6517 39.7262L22.6311 39.7881L22.6036 39.85H21.2231L21.2501 39.7881L21.3051 39.6646L21.3322 39.5959L21.3528 39.5344L21.3803 39.4728L21.4077 39.4109L21.4347 39.349L21.4622 39.2874L21.4897 39.2187L21.5168 39.1568L21.5443 39.0952L21.5648 39.0333L21.5923 38.9714L21.6193 38.9097L21.6468 38.841L21.6742 38.7792L21.7013 38.7173L21.7288 38.6556L21.7562 38.5937L21.7768 38.5321L21.8039 38.4634L21.8314 38.4015L21.8589 38.3399L21.8859 38.278L21.9134 38.2161L21.9409 38.1544L21.9679 38.0857L21.9885 38.0239L22.016 37.9622L22.0435 37.9003L22.0706 37.8384L22.098 37.7766L22.1254 37.7081L22.1525 37.6462L22.1799 37.5843L22.2005 37.5227L22.228 37.4608L22.2551 37.3992L22.2826 37.3304L22.31 37.2686L22.3371 37.2067L22.392 37.0832L22.4126 37.0213L22.4397 36.9601L22.4671 36.8914L22.4946 36.8295L22.5217 36.7676L22.5766 36.6441L22.6036 36.5824L22.6242 36.5137L22.6791 36.3902L22.7063 36.3283L22.7612 36.2048L22.7883 36.1361L22.8157 36.0742L22.8363 36.0126L22.8637 35.9507L22.8908 35.8888L22.9182 35.8269L22.9457 35.7584L22.9728 35.6966L23.0003 35.6347L23.0278 35.573L23.0479 35.5112L23.0754 35.4493L23.1029 35.3808L23.1304 35.3189L23.1574 35.257L23.1849 35.1954L23.2124 35.1335L23.2394 35.0719L23.2601 35.0032L23.315 34.8794L23.342 34.8177H24.6067L24.634 34.8794L24.6615 34.9413L24.6886 35.0032L24.7161 35.0719L24.7366 35.1335L24.7636 35.1954L24.7912 35.257L24.8462 35.3808L24.8731 35.4493L24.9281 35.573L24.9484 35.6347L25.0034 35.7584L25.0307 35.8269L25.0578 35.8888L25.1128 36.0126L25.1399 36.0742L25.1604 36.1361L25.1879 36.2048L25.2149 36.2664L25.2425 36.3283L25.2698 36.3902L25.2973 36.4519L25.3244 36.5137L25.3519 36.5824L25.3724 36.6441L25.3994 36.706L25.4269 36.7676L25.482 36.8914L25.5088 36.9601L25.5364 37.0213L25.5639 37.0832L25.5841 37.145L25.6114 37.2067L25.6389 37.2686L25.666 37.3304L25.6935 37.3992L25.7211 37.4608L25.7486 37.5227L25.7756 37.5843L25.7961 37.6462L25.8236 37.7081L25.8507 37.7766L25.878 37.8384L25.9331 37.9622L25.9601 38.0239L25.9876 38.0857L26.0081 38.1544L26.0352 38.2161L26.0902 38.3399L26.1173 38.4015L26.1446 38.4634L26.1721 38.5321L26.1996 38.5937L26.2199 38.6556L26.2474 38.7173L26.2747 38.7792L26.3018 38.841L26.3293 38.9097L26.3568 38.9714L26.3841 39.0333L26.4112 39.0952L26.4319 39.1568L26.4594 39.2187L26.4865 39.2874L26.5138 39.349L26.5413 39.4109L26.5684 39.4728L26.5959 39.5344L26.6234 39.5959L26.6439 39.6646L26.6709 39.7262L26.6985 39.7881L26.7258 39.85H25.3175ZM20.669 39.2116L20.6141 39.253L20.5664 39.2874L20.5115 39.3286L20.4569 39.3629L20.4024 39.4041L20.3475 39.4384L20.2929 39.4728L20.2311 39.5069L20.1083 39.5756L20.0466 39.6027L19.9851 39.637L19.9169 39.6646L19.8555 39.6921L19.7868 39.7194L19.7255 39.7469L19.664 39.7676L19.6023 39.7881L19.5408 39.8088L19.4726 39.8293L19.4112 39.85L19.3425 39.8636L19.2811 39.8775L19.2129 39.8912L19.1443 39.9048L19.076 39.9116L19.0008 39.9187L18.9326 39.9255L18.8574 39.9323L18.7887 39.9392L18.7137 39.946H18.4196L18.3513 39.9392L18.2762 39.9323L18.1397 39.9187L18.071 39.9116L17.9345 39.8843L17.8731 39.8704L17.8045 39.8568L17.7431 39.8363L17.6748 39.8224L17.613 39.8017L17.5516 39.7744L17.4902 39.7537L17.422 39.7262L17.3602 39.6989L17.2988 39.6714L17.2374 39.6441L17.1755 39.6097L17.1211 39.5756L17.0597 39.5413L16.9502 39.4728L16.7862 39.349L16.7382 39.3079L16.6905 39.2667L16.6424 39.2187L16.5948 39.1775L16.5467 39.1293L16.499 39.0813L16.4578 39.0333L16.417 38.9784L16.3758 38.9302L16.3415 38.8754L16.3007 38.8203L16.2664 38.7655L16.2324 38.7104L16.1981 38.6488L16.1638 38.5937L16.1368 38.5321L16.0819 38.4083L16.0548 38.3467L16.0342 38.2916L16.0067 38.2297L15.9929 38.1681L15.9727 38.1062L15.959 38.0377L15.9384 37.9759L15.9247 37.9072L15.9178 37.8453L15.904 37.7766L15.8973 37.7149L15.8903 37.6462L15.8839 37.5775L15.8771 37.509V37.2822L15.8839 37.2067V37.1382L15.8903 37.0695L15.8973 36.994L15.911 36.9257L15.9178 36.857L15.9315 36.7952L15.9521 36.7267L15.9659 36.658L15.986 36.5961L16.0067 36.5274L16.0273 36.4657L16.0548 36.397L16.0819 36.3352L16.1368 36.2116L16.1638 36.1497L16.1981 36.0879L16.2324 36.033L16.2664 35.978L16.3007 35.9232L16.3351 35.8683L16.3758 35.8133L16.417 35.7584L16.4578 35.7034L16.499 35.6554L16.5467 35.6074L16.5879 35.5592L16.6356 35.5112L16.6836 35.4632L16.7313 35.422L16.7862 35.3737L16.8339 35.3326L16.8884 35.2914L16.9433 35.257L16.9979 35.2159L17.0529 35.1815L17.1073 35.1474L17.1687 35.113L17.2305 35.0787L17.2919 35.0443L17.3533 35.0168L17.415 34.9893L17.4834 34.9549L17.5379 34.9344L17.6061 34.9137L17.668 34.8864L17.7294 34.8726L17.7907 34.8521L17.8593 34.8382L17.9207 34.8177L17.989 34.8039L18.0573 34.797L18.1259 34.7834L18.2624 34.7697L18.3307 34.7627L18.3994 34.7559H18.693L18.7686 34.7627L18.8437 34.7697H18.912L18.9802 34.7766L19.0553 34.7902L19.1172 34.797L19.1854 34.8109L19.2537 34.8246L19.3154 34.8382L19.3768 34.8521L19.4383 34.8657L19.5001 34.8864L19.5614 34.9001L19.616 34.9206L19.6778 34.9413L19.7392 34.9688L19.8624 35.0236L19.9238 35.058L19.9851 35.0855L20.0401 35.1199L20.1015 35.1542L20.156 35.1883L20.2178 35.2229L20.2723 35.2639L20.3269 35.2984L20.3818 35.3396L20.4363 35.3808L20.4912 35.4288L20.5458 35.47L20.5046 35.525L20.4569 35.573L20.4157 35.6279L20.3681 35.6829L20.3269 35.7377L20.286 35.7857L20.238 35.8408L20.1972 35.8956L20.156 35.9439L20.1083 35.9987L20.0672 36.0537L20.0194 36.1086L19.9782 36.1566L19.9375 36.2116L19.8895 36.2664L19.8486 36.3215L19.8006 36.3695L19.7597 36.4243L19.7048 36.3832L19.6503 36.3352L19.5954 36.3008L19.5408 36.2596L19.4863 36.2253L19.4314 36.1909L19.3768 36.1566L19.3154 36.1222L19.2605 36.0949L19.206 36.0674L19.1511 36.0467L19.0896 36.0262L19.0283 36.0055L18.9665 35.9919L18.8983 35.978L18.83 35.9643L18.7617 35.9575L18.6111 35.9439H18.4677L18.3994 35.9507L18.3376 35.9575L18.2694 35.9712L18.208 35.985L18.1462 36.0055L18.0848 36.0262L18.0234 36.0537L17.962 36.081L17.9071 36.1154L17.8526 36.1497L17.7976 36.1841L17.75 36.2253L17.7019 36.2664L17.6542 36.3076L17.613 36.3556L17.5654 36.4039L17.5242 36.4587L17.4902 36.5069L17.4559 36.5617L17.422 36.6236L17.3876 36.6784L17.3602 36.7403L17.3396 36.802L17.3125 36.8639L17.2919 36.9326L17.2782 37.0008L17.2645 37.0624L17.2507 37.1382L17.2439 37.2067L17.2374 37.2754V37.4335L17.2439 37.502L17.2507 37.5639L17.2576 37.6326L17.2851 37.7561L17.2988 37.818L17.3194 37.8796L17.3396 37.9347L17.3671 38.0032L17.3945 38.065L17.4284 38.1269L17.4628 38.1817L17.4971 38.2368L17.5379 38.2916L17.5791 38.3399L17.6267 38.3879L17.668 38.4359L17.7156 38.477L17.7706 38.5182L17.8251 38.5594L17.8796 38.5937L17.9345 38.6281L17.996 38.6556L18.0573 38.6832L18.1191 38.7104L18.1874 38.7312L18.2556 38.7516L18.3243 38.7655L18.3925 38.7792L18.4608 38.786L18.5359 38.793H18.693L18.7686 38.786L18.8437 38.7792L18.912 38.7723L18.9802 38.7584L19.0489 38.7448L19.1172 38.7243L19.1785 38.7104L19.24 38.6832L19.2949 38.6556L19.3563 38.6281L19.4043 38.6008L19.4589 38.5662V37.9415H18.4608V36.9394H20.7166V39.1707L20.669 39.2116Z" fill="#3C3935"/>
<path d="M18.4709 23.5435H21.4336V21.2517H18.4709V16.5732H21.5515V14.2816H15.955V30.8209H21.5984V28.5292H18.4709V23.5435Z" fill="#3C3935"/>
<path d="M39.6916 24.0399V27.7733C39.6916 28.4349 39.386 28.7418 38.7514 28.7418H38.2808C37.6225 28.7418 37.3166 28.4349 37.3166 27.7733V17.3295C37.3166 16.6679 37.6225 16.3609 38.2808 16.3609H38.7041C39.3389 16.3609 39.6448 16.6679 39.6448 17.3295V20.5668H42.1135V17.1877C42.1135 15.1323 41.126 14.1398 39.0806 14.1398H37.8575C35.8121 14.1398 34.8008 15.1557 34.8008 17.2115V27.8912C34.8008 29.9469 35.8121 30.9629 37.8575 30.9629H39.1039C41.1498 30.9629 42.1606 29.9469 42.1606 27.8912V24.0399H39.6916Z" fill="#3C3935"/>
<path d="M30.9545 30.821H33.4707V14.2816H30.9545V30.821Z" fill="#3C3935"/>
<path d="M27.3036 21.6297C27.3036 22.2914 26.9982 22.5987 26.3634 22.5987H25.3286V16.5026H26.3634C26.9982 16.5026 27.3036 16.8096 27.3036 17.4712V21.6297ZM26.7629 14.2816H22.8126V30.8209H25.3286V24.8193H26.7629C28.8086 24.8193 29.8196 23.8035 29.8196 21.7481V17.3532C29.8196 15.2974 28.8086 14.2816 26.7629 14.2816Z" fill="#3C3935"/>
<path fill-rule="evenodd" clip-rule="evenodd" d="M21.8906 45.7761H36.2935L28.942 48.2003L21.8906 45.7761Z" fill="#3C3935"/>
</svg>
