<svg width="60" height="60" viewBox="0 0 60 60" fill="none" xmlns="http://www.w3.org/2000/svg">
<path d="M9.6444 33.2581C9.6444 20.2009 20.2296 9.61452 33.288 9.61452C46.3464 9.61452 56.0232 19.3165 56.8728 31.6021C56.9028 31.0777 56.9184 30.5497 56.9184 30.0181C56.9184 15.1633 44.8752 3.12012 30.0192 3.12012C15.1632 3.12012 3.12 15.1633 3.12 30.0193C3.12 44.8753 15.1632 56.9185 30.0192 56.9185C30.6336 56.9185 31.2432 56.8981 31.8468 56.8573C19.4592 56.1121 9.6432 45.8329 9.6432 33.2581H9.6444Z" fill="#F47521"/>
<path d="M46.3764 34.5901C41.6244 34.5901 37.7712 30.7369 37.7712 25.9849C37.7712 22.2577 40.1412 19.0849 43.4556 17.8885C40.8288 16.5061 37.8384 15.7225 34.6644 15.7225C24.2244 15.7225 15.762 24.1861 15.762 34.6261C15.762 45.0661 24.2244 53.5297 34.6644 53.5297C45.1044 53.5297 53.568 45.0661 53.568 34.6261C53.568 33.4429 53.4576 32.2849 53.25 31.1605C51.6792 33.2437 49.1844 34.5901 46.3752 34.5901H46.3764Z" fill="#F47521"/>
</svg>
