<svg width="60" height="60" viewBox="0 0 60 60" fill="none" xmlns="http://www.w3.org/2000/svg">
<path fill-rule="evenodd" clip-rule="evenodd" d="M30.0003 5.00001C24.0593 4.99396 18.3103 7.10379 13.7837 10.9514C9.25703 14.799 6.24853 20.1329 5.29731 25.9972C4.34611 31.8615 5.51436 37.8727 8.59271 42.954C11.6711 48.0352 16.4583 51.854 22.0966 53.7262C23.355 53.9565 23.8001 53.1737 23.8001 52.5137V48.2627C16.8173 49.782 15.344 44.9017 15.344 44.9017C14.8807 43.3892 13.8966 42.0897 12.5662 41.234C10.3102 39.6992 12.7504 39.6992 12.7504 39.6992C13.5412 39.811 14.2962 40.101 14.9583 40.5477C15.6203 40.9945 16.1721 41.586 16.5717 42.2775C16.9113 42.8932 17.3691 43.4357 17.9189 43.8742C18.4686 44.3125 19.0996 44.638 19.7754 44.832C20.4513 45.0257 21.1588 45.0842 21.8574 45.0042C22.5559 44.924 23.2318 44.7067 23.8461 44.3647C23.9424 43.1022 24.4867 41.9155 25.3808 41.019C19.8252 40.3897 13.9934 38.2412 13.9934 28.7415C13.9553 26.26 14.8729 23.8587 16.5564 22.035C15.8066 19.8773 15.8942 17.5167 16.8019 15.4205C16.8019 15.4205 18.9044 14.7452 23.6773 17.9834C27.7758 16.8581 32.1018 16.8581 36.2003 17.9834C40.9731 14.7452 43.0603 15.4205 43.0603 15.4205C43.9806 17.4945 44.0903 19.8382 43.3673 21.9889C45.0508 23.8127 45.9683 26.214 45.9303 28.6955C45.9303 38.3027 40.0831 40.4052 34.5121 40.973C35.1096 41.5735 35.5708 42.2952 35.8648 43.0897C36.1586 43.884 36.2783 44.7322 36.2156 45.577V52.437C36.2156 53.2505 36.6608 53.8797 37.9346 53.6342C43.5086 51.7125 48.2241 47.8827 51.2481 42.8215C54.2721 37.76 55.4101 31.7927 54.4606 25.9737C53.5113 20.1547 50.5358 14.8584 46.0601 11.0206C41.5841 7.18276 35.8958 5.05031 30.0003 5.00001Z" fill="white"/>
</svg>
