<svg width="60" height="60" viewBox="0 0 60 60" fill="none" xmlns="http://www.w3.org/2000/svg">
<path d="M26.6427 5V47.9688H51.7207L46.0957 55H12.1895L16.252 47.8905V9.92188L12.502 5H26.6427ZM29.6895 14.375C39.4552 14.5312 47.2678 22.4219 47.2678 32.1875C47.2678 37.1875 45.2365 41.7188 41.877 44.922H47.1895C49.6895 41.4062 51.174 37.1875 51.252 32.5C51.4865 20.3906 41.799 10.4688 29.6895 10.2344H29.6115L29.6895 14.375ZM13.2052 39.6875C12.1114 37.422 11.5645 34.8438 11.5645 32.1875C11.5645 29.5312 12.1895 26.953 13.2052 24.6875V17.4219C9.76765 21.25 7.58015 26.25 7.50202 31.797C7.4239 37.578 9.6114 42.8905 13.2052 46.875V39.6875Z" fill="#CEA146"/>
</svg>
