<svg width="60" height="60" viewBox="0 0 60 60" fill="none" xmlns="http://www.w3.org/2000/svg">
<path d="M53.8824 30.1177C53.8824 16.9928 43.2426 6.35303 30.1177 6.35303C16.9928 6.35303 6.35297 16.9928 6.35297 30.1177C6.35297 43.2427 16.9928 53.8824 30.1177 53.8824C43.2426 53.8824 53.8824 43.2427 53.8824 30.1177Z" fill="white"/>
<path fill-rule="evenodd" clip-rule="evenodd" d="M28.4466 22.1374H36.9873C41.573 22.1374 43.2991 24.5163 43.0323 28.0111C42.5916 33.781 39.1876 36.973 34.6725 36.973H32.393C31.7734 36.973 31.3567 37.3933 31.1892 38.5319L30.2214 45.1511C30.1574 45.5803 29.937 45.829 29.6064 45.8629H24.2403C23.7353 45.8629 23.557 45.4674 23.6892 44.6114L26.9607 23.3911C27.0887 22.5418 27.5429 22.1374 28.4466 22.1374Z" fill="#009EE3"/>
<path fill-rule="evenodd" clip-rule="evenodd" d="M22.8909 14.5883H31.6713C34.1438 14.5883 37.0781 14.6688 39.0388 16.4291C40.3497 17.6048 41.0381 19.4755 40.8796 21.4911C40.3407 28.3043 36.3309 32.1215 30.9511 32.1215H26.6221C25.884 32.1215 25.3972 32.6184 25.189 33.9622L23.9798 41.7855C23.9007 42.2916 23.6857 42.5906 23.3007 42.6276H17.8825C17.2825 42.6276 17.0697 42.1673 17.2259 41.1502L21.1203 16.0747C21.2765 15.0669 21.8222 14.5883 22.8909 14.5883Z" fill="#113984"/>
</svg>
