<svg width="60" height="60" viewBox="0 0 60 60" fill="none" xmlns="http://www.w3.org/2000/svg">
<path fill-rule="evenodd" clip-rule="evenodd" d="M53.955 18.0009C53.38 15.8355 51.686 14.1304 49.5348 13.5517C45.6355 12.5 30 12.5 30 12.5C30 12.5 14.3645 12.5 10.4654 13.5517C8.3142 14.1304 6.61987 15.8355 6.04487 18.0009C5 21.9253 5 30.1138 5 30.1138C5 30.1138 5 38.3018 6.04487 42.2268C6.61987 44.3918 8.3142 46.0968 10.4654 46.6758C14.3645 47.7272 30 47.7273 30 47.7273C30 47.7273 45.6355 47.7272 49.5348 46.6758C51.686 46.0968 53.38 44.3918 53.955 42.2268C55 38.3018 55 30.1138 55 30.1138C55 30.1138 55 21.9253 53.955 18.0009Z" fill="#D9252A"/>
<path fill-rule="evenodd" clip-rule="evenodd" d="M24.8862 37.548L37.9542 30.1137L24.8862 22.6792V37.548Z" fill="#FFFFFE"/>
</svg>
